M48
; DRILL file {KiCad 7.0.6} date Tue Jul 18 10:58:00 2023
; FORMAT={-:-/ absolute / inch / decimal}
; #@! TF.CreationDate,2023-07-18T10:58:00+02:00
; #@! TF.GenerationSoftware,Kicad,Pcbnew,7.0.6
; #@! TF.FileFunction,Plated,1,2,PTH
FMAT,2
INCH
; #@! TA.AperFunction,Plated,PTH,ViaDrill
T1C0.0157
; #@! TA.AperFunction,Plated,PTH,ComponentDrill
T2C0.0300
; #@! TA.AperFunction,Plated,PTH,ComponentDrill
T3C0.0315
; #@! TA.AperFunction,Plated,PTH,ComponentDrill
T4C0.0354
; #@! TA.AperFunction,Plated,PTH,ComponentDrill
T5C0.0394
; #@! TA.AperFunction,Plated,PTH,ComponentDrill
T6C0.0433
; #@! TA.AperFunction,Plated,PTH,ComponentDrill
T7C0.0598
%
G90
G05
T1
X4.575Y-1.5
X4.575Y-1.55
X4.575Y-1.6
X4.575Y-1.65
X4.575Y-1.7
X4.575Y-1.75
X4.575Y-1.8
X4.575Y-1.85
X4.575Y-1.9
X4.575Y-1.95
X4.575Y-5.125
X4.6Y-2.0
X4.6Y-5.075
X4.625Y-5.125
X4.65Y-1.5
X4.65Y-1.55
X4.65Y-1.6
X4.65Y-1.65
X4.65Y-1.7
X4.65Y-1.75
X4.65Y-1.8
X4.65Y-1.85
X4.65Y-1.9
X4.65Y-1.95
X4.65Y-2.0
X4.65Y-2.05
X4.65Y-5.075
X4.675Y-5.125
X6.4Y-3.55
X7.075Y-4.85
T2
X5.4Y-1.9262
X5.4Y-2.0262
X5.4Y-2.1262
X5.4Y-2.2262
X5.4Y-2.3262
X5.4Y-2.4262
X5.4Y-2.5262
X5.4Y-2.6262
X5.4Y-2.7262
X5.4Y-2.8262
X5.4Y-2.9262
X5.4Y-3.0262
X5.4Y-3.1262
X5.4Y-3.2262
X5.4Y-3.3262
X5.4Y-3.4262
X5.4Y-3.5262
X5.4Y-3.6262
X5.4Y-3.7262
X5.4Y-3.8262
X5.65Y-3.8171
X5.75Y-3.8171
X5.85Y-3.8171
X6.1Y-1.9262
X6.1Y-2.0262
X6.1Y-2.1262
X6.1Y-2.2262
X6.1Y-2.3262
X6.1Y-2.4262
X6.1Y-2.5262
X6.1Y-2.6262
X6.1Y-2.7262
X6.1Y-2.8262
X6.1Y-2.9262
X6.1Y-3.0262
X6.1Y-3.1262
X6.1Y-3.2262
X6.1Y-3.3262
X6.1Y-3.4262
X6.1Y-3.5262
X6.1Y-3.6262
X6.1Y-3.7262
X6.1Y-3.8262
T3
X6.35Y-2.45
X6.4Y-1.85
X6.4484Y-2.45
X6.4984Y-1.85
T4
X6.325Y-3.35
X6.325Y-3.7
X6.425Y-3.35
X6.425Y-3.7
T5
X4.8Y-1.7
X4.8Y-2.0
X4.8Y-2.15
X4.8Y-2.3
X4.8Y-2.45
X4.8Y-2.6
X4.8Y-2.75
X4.8Y-2.9
X4.8Y-3.05
X4.8Y-3.2
X4.8Y-3.35
X4.8006Y-1.849
X4.825Y-3.55
X4.825Y-3.65
X4.825Y-3.75
X4.825Y-3.85
X4.9Y-1.7
X4.9Y-2.0
X4.9Y-2.15
X4.9Y-2.3
X4.9Y-2.45
X4.9Y-2.6
X4.9Y-2.75
X4.9Y-2.9
X4.9Y-3.05
X4.9Y-3.2
X4.9Y-3.35
X4.9006Y-1.849
X4.975Y-3.55
X4.975Y-3.65
X4.975Y-3.75
X4.975Y-3.85
X5.0Y-1.7
X5.0Y-2.0
X5.0Y-2.15
X5.0Y-2.3
X5.0Y-2.45
X5.0Y-2.6
X5.0Y-2.75
X5.0Y-2.9
X5.0Y-3.05
X5.0Y-3.2
X5.0Y-3.35
X5.0006Y-1.849
X5.125Y-3.55
X5.125Y-3.65
X5.125Y-3.75
X5.125Y-3.85
X6.551Y-2.701
X6.551Y-2.801
X6.551Y-2.901
X6.551Y-3.001
X6.75Y-2.7
X6.75Y-2.8
X6.75Y-2.9
X6.75Y-3.0
X6.9Y-3.35
X6.9Y-3.45
X6.9Y-3.55
X6.9Y-3.65
X6.9Y-3.75
X6.9Y-3.85
T6
X6.4Y-2.05
X6.4Y-2.15
X6.4Y-2.25
T7
X3.2Y-2.0333
X3.2Y-2.2333
X3.2Y-2.8917
X3.2Y-3.0917
X3.2Y-3.75
X3.2Y-3.95
X3.2Y-4.6083
X3.2Y-4.8083
X3.25Y-5.25
X3.45Y-5.25
X3.775Y-1.625
X3.775Y-1.825
X3.775Y-2.5
X3.775Y-2.7
X3.775Y-3.35
X3.775Y-3.55
X3.775Y-4.2
X3.775Y-4.4
X3.85Y-5.25
X4.05Y-5.25
X4.325Y-2.05
X4.325Y-2.25
X4.325Y-2.9
X4.325Y-3.1
X4.325Y-3.775
X4.325Y-3.975
X4.35Y-4.625
X4.35Y-4.825
X4.425Y-5.25
X4.625Y-5.25
T5
G00X6.6Y-2.3394
M15
G01X6.6Y-2.2606
M16
G05
G00X6.7575Y-2.115
M15
G01X6.6787Y-2.115
M16
G05
G00X6.8362Y-2.3394
M15
G01X6.8362Y-2.2606
M16
G05
T0
M30
