%TF.GenerationSoftware,KiCad,Pcbnew,7.0.6*%
%TF.CreationDate,2023-07-18T10:57:58+02:00*%
%TF.ProjectId,PCB,5043422e-6b69-4636-9164-5f7063625858,rev?*%
%TF.SameCoordinates,Original*%
%TF.FileFunction,Legend,Top*%
%TF.FilePolarity,Positive*%
%FSLAX46Y46*%
G04 Gerber Fmt 4.6, Leading zero omitted, Abs format (unit mm)*
G04 Created by KiCad (PCBNEW 7.0.6) date 2023-07-18 10:57:58*
%MOMM*%
%LPD*%
G01*
G04 APERTURE LIST*
%ADD10C,0.150000*%
%ADD11C,0.500000*%
%ADD12C,0.400000*%
%ADD13C,0.120000*%
G04 APERTURE END LIST*
D10*
X121436695Y-100103561D02*
X122055742Y-100103561D01*
X122055742Y-100103561D02*
X121722409Y-100484513D01*
X121722409Y-100484513D02*
X121865266Y-100484513D01*
X121865266Y-100484513D02*
X121960504Y-100532132D01*
X121960504Y-100532132D02*
X122008123Y-100579751D01*
X122008123Y-100579751D02*
X122055742Y-100674989D01*
X122055742Y-100674989D02*
X122055742Y-100913084D01*
X122055742Y-100913084D02*
X122008123Y-101008322D01*
X122008123Y-101008322D02*
X121960504Y-101055942D01*
X121960504Y-101055942D02*
X121865266Y-101103561D01*
X121865266Y-101103561D02*
X121579552Y-101103561D01*
X121579552Y-101103561D02*
X121484314Y-101055942D01*
X121484314Y-101055942D02*
X121436695Y-101008322D01*
X122341457Y-100103561D02*
X122674790Y-101103561D01*
X122674790Y-101103561D02*
X123008123Y-100103561D01*
X123246219Y-100103561D02*
X123865266Y-100103561D01*
X123865266Y-100103561D02*
X123531933Y-100484513D01*
X123531933Y-100484513D02*
X123674790Y-100484513D01*
X123674790Y-100484513D02*
X123770028Y-100532132D01*
X123770028Y-100532132D02*
X123817647Y-100579751D01*
X123817647Y-100579751D02*
X123865266Y-100674989D01*
X123865266Y-100674989D02*
X123865266Y-100913084D01*
X123865266Y-100913084D02*
X123817647Y-101008322D01*
X123817647Y-101008322D02*
X123770028Y-101055942D01*
X123770028Y-101055942D02*
X123674790Y-101103561D01*
X123674790Y-101103561D02*
X123389076Y-101103561D01*
X123389076Y-101103561D02*
X123293838Y-101055942D01*
X123293838Y-101055942D02*
X123246219Y-101008322D01*
X128630397Y-101107958D02*
X128630397Y-100107958D01*
X128630397Y-100107958D02*
X129011349Y-100107958D01*
X129011349Y-100107958D02*
X129106587Y-100155577D01*
X129106587Y-100155577D02*
X129154206Y-100203196D01*
X129154206Y-100203196D02*
X129201825Y-100298434D01*
X129201825Y-100298434D02*
X129201825Y-100441291D01*
X129201825Y-100441291D02*
X129154206Y-100536529D01*
X129154206Y-100536529D02*
X129106587Y-100584148D01*
X129106587Y-100584148D02*
X129011349Y-100631767D01*
X129011349Y-100631767D02*
X128630397Y-100631767D01*
X129630397Y-101107958D02*
X129630397Y-100107958D01*
X130106587Y-101107958D02*
X130106587Y-100107958D01*
X130106587Y-100107958D02*
X130678015Y-101107958D01*
X130678015Y-101107958D02*
X130678015Y-100107958D01*
X131106587Y-101060339D02*
X131249444Y-101107958D01*
X131249444Y-101107958D02*
X131487539Y-101107958D01*
X131487539Y-101107958D02*
X131582777Y-101060339D01*
X131582777Y-101060339D02*
X131630396Y-101012719D01*
X131630396Y-101012719D02*
X131678015Y-100917481D01*
X131678015Y-100917481D02*
X131678015Y-100822243D01*
X131678015Y-100822243D02*
X131630396Y-100727005D01*
X131630396Y-100727005D02*
X131582777Y-100679386D01*
X131582777Y-100679386D02*
X131487539Y-100631767D01*
X131487539Y-100631767D02*
X131297063Y-100584148D01*
X131297063Y-100584148D02*
X131201825Y-100536529D01*
X131201825Y-100536529D02*
X131154206Y-100488910D01*
X131154206Y-100488910D02*
X131106587Y-100393672D01*
X131106587Y-100393672D02*
X131106587Y-100298434D01*
X131106587Y-100298434D02*
X131154206Y-100203196D01*
X131154206Y-100203196D02*
X131201825Y-100155577D01*
X131201825Y-100155577D02*
X131297063Y-100107958D01*
X131297063Y-100107958D02*
X131535158Y-100107958D01*
X131535158Y-100107958D02*
X131678015Y-100155577D01*
X125632683Y-100096225D02*
X125537445Y-100048606D01*
X125537445Y-100048606D02*
X125394588Y-100048606D01*
X125394588Y-100048606D02*
X125251731Y-100096225D01*
X125251731Y-100096225D02*
X125156493Y-100191463D01*
X125156493Y-100191463D02*
X125108874Y-100286701D01*
X125108874Y-100286701D02*
X125061255Y-100477177D01*
X125061255Y-100477177D02*
X125061255Y-100620034D01*
X125061255Y-100620034D02*
X125108874Y-100810510D01*
X125108874Y-100810510D02*
X125156493Y-100905748D01*
X125156493Y-100905748D02*
X125251731Y-101000987D01*
X125251731Y-101000987D02*
X125394588Y-101048606D01*
X125394588Y-101048606D02*
X125489826Y-101048606D01*
X125489826Y-101048606D02*
X125632683Y-101000987D01*
X125632683Y-101000987D02*
X125680302Y-100953367D01*
X125680302Y-100953367D02*
X125680302Y-100620034D01*
X125680302Y-100620034D02*
X125489826Y-100620034D01*
X126108874Y-101048606D02*
X126108874Y-100048606D01*
X126108874Y-100048606D02*
X126680302Y-101048606D01*
X126680302Y-101048606D02*
X126680302Y-100048606D01*
X127156493Y-101048606D02*
X127156493Y-100048606D01*
X127156493Y-100048606D02*
X127394588Y-100048606D01*
X127394588Y-100048606D02*
X127537445Y-100096225D01*
X127537445Y-100096225D02*
X127632683Y-100191463D01*
X127632683Y-100191463D02*
X127680302Y-100286701D01*
X127680302Y-100286701D02*
X127727921Y-100477177D01*
X127727921Y-100477177D02*
X127727921Y-100620034D01*
X127727921Y-100620034D02*
X127680302Y-100810510D01*
X127680302Y-100810510D02*
X127632683Y-100905748D01*
X127632683Y-100905748D02*
X127537445Y-101000987D01*
X127537445Y-101000987D02*
X127394588Y-101048606D01*
X127394588Y-101048606D02*
X127156493Y-101048606D01*
X127457200Y-40985839D02*
X127504819Y-40842982D01*
X127504819Y-40842982D02*
X127504819Y-40604887D01*
X127504819Y-40604887D02*
X127457200Y-40509649D01*
X127457200Y-40509649D02*
X127409580Y-40462030D01*
X127409580Y-40462030D02*
X127314342Y-40414411D01*
X127314342Y-40414411D02*
X127219104Y-40414411D01*
X127219104Y-40414411D02*
X127123866Y-40462030D01*
X127123866Y-40462030D02*
X127076247Y-40509649D01*
X127076247Y-40509649D02*
X127028628Y-40604887D01*
X127028628Y-40604887D02*
X126981009Y-40795363D01*
X126981009Y-40795363D02*
X126933390Y-40890601D01*
X126933390Y-40890601D02*
X126885771Y-40938220D01*
X126885771Y-40938220D02*
X126790533Y-40985839D01*
X126790533Y-40985839D02*
X126695295Y-40985839D01*
X126695295Y-40985839D02*
X126600057Y-40938220D01*
X126600057Y-40938220D02*
X126552438Y-40890601D01*
X126552438Y-40890601D02*
X126504819Y-40795363D01*
X126504819Y-40795363D02*
X126504819Y-40557268D01*
X126504819Y-40557268D02*
X126552438Y-40414411D01*
X127504819Y-39985839D02*
X126504819Y-39985839D01*
X126552438Y-38985840D02*
X126504819Y-39081078D01*
X126504819Y-39081078D02*
X126504819Y-39223935D01*
X126504819Y-39223935D02*
X126552438Y-39366792D01*
X126552438Y-39366792D02*
X126647676Y-39462030D01*
X126647676Y-39462030D02*
X126742914Y-39509649D01*
X126742914Y-39509649D02*
X126933390Y-39557268D01*
X126933390Y-39557268D02*
X127076247Y-39557268D01*
X127076247Y-39557268D02*
X127266723Y-39509649D01*
X127266723Y-39509649D02*
X127361961Y-39462030D01*
X127361961Y-39462030D02*
X127457200Y-39366792D01*
X127457200Y-39366792D02*
X127504819Y-39223935D01*
X127504819Y-39223935D02*
X127504819Y-39128697D01*
X127504819Y-39128697D02*
X127457200Y-38985840D01*
X127457200Y-38985840D02*
X127409580Y-38938221D01*
X127409580Y-38938221D02*
X127076247Y-38938221D01*
X127076247Y-38938221D02*
X127076247Y-39128697D01*
X123964819Y-41081077D02*
X124964819Y-40747744D01*
X124964819Y-40747744D02*
X123964819Y-40414411D01*
X124869580Y-39509649D02*
X124917200Y-39557268D01*
X124917200Y-39557268D02*
X124964819Y-39700125D01*
X124964819Y-39700125D02*
X124964819Y-39795363D01*
X124964819Y-39795363D02*
X124917200Y-39938220D01*
X124917200Y-39938220D02*
X124821961Y-40033458D01*
X124821961Y-40033458D02*
X124726723Y-40081077D01*
X124726723Y-40081077D02*
X124536247Y-40128696D01*
X124536247Y-40128696D02*
X124393390Y-40128696D01*
X124393390Y-40128696D02*
X124202914Y-40081077D01*
X124202914Y-40081077D02*
X124107676Y-40033458D01*
X124107676Y-40033458D02*
X124012438Y-39938220D01*
X124012438Y-39938220D02*
X123964819Y-39795363D01*
X123964819Y-39795363D02*
X123964819Y-39700125D01*
X123964819Y-39700125D02*
X124012438Y-39557268D01*
X124012438Y-39557268D02*
X124060057Y-39509649D01*
X124869580Y-38509649D02*
X124917200Y-38557268D01*
X124917200Y-38557268D02*
X124964819Y-38700125D01*
X124964819Y-38700125D02*
X124964819Y-38795363D01*
X124964819Y-38795363D02*
X124917200Y-38938220D01*
X124917200Y-38938220D02*
X124821961Y-39033458D01*
X124821961Y-39033458D02*
X124726723Y-39081077D01*
X124726723Y-39081077D02*
X124536247Y-39128696D01*
X124536247Y-39128696D02*
X124393390Y-39128696D01*
X124393390Y-39128696D02*
X124202914Y-39081077D01*
X124202914Y-39081077D02*
X124107676Y-39033458D01*
X124107676Y-39033458D02*
X124012438Y-38938220D01*
X124012438Y-38938220D02*
X123964819Y-38795363D01*
X123964819Y-38795363D02*
X123964819Y-38700125D01*
X123964819Y-38700125D02*
X124012438Y-38557268D01*
X124012438Y-38557268D02*
X124060057Y-38509649D01*
X121472438Y-40414411D02*
X121424819Y-40509649D01*
X121424819Y-40509649D02*
X121424819Y-40652506D01*
X121424819Y-40652506D02*
X121472438Y-40795363D01*
X121472438Y-40795363D02*
X121567676Y-40890601D01*
X121567676Y-40890601D02*
X121662914Y-40938220D01*
X121662914Y-40938220D02*
X121853390Y-40985839D01*
X121853390Y-40985839D02*
X121996247Y-40985839D01*
X121996247Y-40985839D02*
X122186723Y-40938220D01*
X122186723Y-40938220D02*
X122281961Y-40890601D01*
X122281961Y-40890601D02*
X122377200Y-40795363D01*
X122377200Y-40795363D02*
X122424819Y-40652506D01*
X122424819Y-40652506D02*
X122424819Y-40557268D01*
X122424819Y-40557268D02*
X122377200Y-40414411D01*
X122377200Y-40414411D02*
X122329580Y-40366792D01*
X122329580Y-40366792D02*
X121996247Y-40366792D01*
X121996247Y-40366792D02*
X121996247Y-40557268D01*
X122424819Y-39938220D02*
X121424819Y-39938220D01*
X121424819Y-39938220D02*
X122424819Y-39366792D01*
X122424819Y-39366792D02*
X121424819Y-39366792D01*
X122424819Y-38890601D02*
X121424819Y-38890601D01*
X121424819Y-38890601D02*
X121424819Y-38652506D01*
X121424819Y-38652506D02*
X121472438Y-38509649D01*
X121472438Y-38509649D02*
X121567676Y-38414411D01*
X121567676Y-38414411D02*
X121662914Y-38366792D01*
X121662914Y-38366792D02*
X121853390Y-38319173D01*
X121853390Y-38319173D02*
X121996247Y-38319173D01*
X121996247Y-38319173D02*
X122186723Y-38366792D01*
X122186723Y-38366792D02*
X122281961Y-38414411D01*
X122281961Y-38414411D02*
X122377200Y-38509649D01*
X122377200Y-38509649D02*
X122424819Y-38652506D01*
X122424819Y-38652506D02*
X122424819Y-38890601D01*
D11*
X115584333Y-51724185D02*
X115584333Y-53628947D01*
X114631952Y-52676566D02*
X116536714Y-52676566D01*
X115584333Y-56724185D02*
X115584333Y-58628947D01*
X115584333Y-72679185D02*
X115584333Y-74583947D01*
X114631952Y-73631566D02*
X116536714Y-73631566D01*
X115584333Y-77679185D02*
X115584333Y-79583947D01*
X115584333Y-94904185D02*
X115584333Y-96808947D01*
X114631952Y-95856566D02*
X116536714Y-95856566D01*
X115584333Y-99904185D02*
X115584333Y-101808947D01*
X116219333Y-116494185D02*
X116219333Y-118398947D01*
X115266952Y-117446566D02*
X117171714Y-117446566D01*
X116219333Y-121494185D02*
X116219333Y-123398947D01*
X101614333Y-105699185D02*
X101614333Y-107603947D01*
X100661952Y-106651566D02*
X102566714Y-106651566D01*
X101614333Y-110699185D02*
X101614333Y-112603947D01*
X101614333Y-84744185D02*
X101614333Y-86648947D01*
X100661952Y-85696566D02*
X102566714Y-85696566D01*
X101614333Y-89744185D02*
X101614333Y-91648947D01*
X101614333Y-62519185D02*
X101614333Y-64423947D01*
X100661952Y-63471566D02*
X102566714Y-63471566D01*
X101614333Y-67519185D02*
X101614333Y-69423947D01*
X101614333Y-40929185D02*
X101614333Y-42833947D01*
X100661952Y-41881566D02*
X102566714Y-41881566D01*
X101614333Y-45929185D02*
X101614333Y-47833947D01*
X87009333Y-50454185D02*
X87009333Y-52358947D01*
X86056952Y-51406566D02*
X87961714Y-51406566D01*
X87009333Y-55454185D02*
X87009333Y-57358947D01*
X87009333Y-72679185D02*
X87009333Y-74583947D01*
X86056952Y-73631566D02*
X87961714Y-73631566D01*
X87009333Y-77679185D02*
X87009333Y-79583947D01*
X87009333Y-94269185D02*
X87009333Y-96173947D01*
X86056952Y-95221566D02*
X87961714Y-95221566D01*
X87009333Y-99269185D02*
X87009333Y-101173947D01*
X87009333Y-115859185D02*
X87009333Y-117763947D01*
X86056952Y-116811566D02*
X87961714Y-116811566D01*
X87009333Y-120859185D02*
X87009333Y-122763947D01*
X112049185Y-127620666D02*
X113953947Y-127620666D01*
X113001566Y-128573047D02*
X113001566Y-126668285D01*
X117049185Y-127620666D02*
X118953947Y-127620666D01*
X96809185Y-127620666D02*
X98713947Y-127620666D01*
X97761566Y-128573047D02*
X97761566Y-126668285D01*
X101809185Y-127620666D02*
X103713947Y-127620666D01*
X82204185Y-127620666D02*
X84108947Y-127620666D01*
X83156566Y-128573047D02*
X83156566Y-126668285D01*
X87204185Y-127620666D02*
X89108947Y-127620666D01*
D10*
X132416779Y-98294819D02*
X132416779Y-97294819D01*
X132416779Y-97294819D02*
X132797731Y-97294819D01*
X132797731Y-97294819D02*
X132892969Y-97342438D01*
X132892969Y-97342438D02*
X132940588Y-97390057D01*
X132940588Y-97390057D02*
X132988207Y-97485295D01*
X132988207Y-97485295D02*
X132988207Y-97628152D01*
X132988207Y-97628152D02*
X132940588Y-97723390D01*
X132940588Y-97723390D02*
X132892969Y-97771009D01*
X132892969Y-97771009D02*
X132797731Y-97818628D01*
X132797731Y-97818628D02*
X132416779Y-97818628D01*
X133940588Y-98294819D02*
X133369160Y-98294819D01*
X133654874Y-98294819D02*
X133654874Y-97294819D01*
X133654874Y-97294819D02*
X133559636Y-97437676D01*
X133559636Y-97437676D02*
X133464398Y-97532914D01*
X133464398Y-97532914D02*
X133369160Y-97580533D01*
X134845350Y-97294819D02*
X134369160Y-97294819D01*
X134369160Y-97294819D02*
X134321541Y-97771009D01*
X134321541Y-97771009D02*
X134369160Y-97723390D01*
X134369160Y-97723390D02*
X134464398Y-97675771D01*
X134464398Y-97675771D02*
X134702493Y-97675771D01*
X134702493Y-97675771D02*
X134797731Y-97723390D01*
X134797731Y-97723390D02*
X134845350Y-97771009D01*
X134845350Y-97771009D02*
X134892969Y-97866247D01*
X134892969Y-97866247D02*
X134892969Y-98104342D01*
X134892969Y-98104342D02*
X134845350Y-98199580D01*
X134845350Y-98199580D02*
X134797731Y-98247200D01*
X134797731Y-98247200D02*
X134702493Y-98294819D01*
X134702493Y-98294819D02*
X134464398Y-98294819D01*
X134464398Y-98294819D02*
X134369160Y-98247200D01*
X134369160Y-98247200D02*
X134321541Y-98199580D01*
X132416779Y-95754819D02*
X132416779Y-94754819D01*
X132416779Y-94754819D02*
X132797731Y-94754819D01*
X132797731Y-94754819D02*
X132892969Y-94802438D01*
X132892969Y-94802438D02*
X132940588Y-94850057D01*
X132940588Y-94850057D02*
X132988207Y-94945295D01*
X132988207Y-94945295D02*
X132988207Y-95088152D01*
X132988207Y-95088152D02*
X132940588Y-95183390D01*
X132940588Y-95183390D02*
X132892969Y-95231009D01*
X132892969Y-95231009D02*
X132797731Y-95278628D01*
X132797731Y-95278628D02*
X132416779Y-95278628D01*
X133940588Y-95754819D02*
X133369160Y-95754819D01*
X133654874Y-95754819D02*
X133654874Y-94754819D01*
X133654874Y-94754819D02*
X133559636Y-94897676D01*
X133559636Y-94897676D02*
X133464398Y-94992914D01*
X133464398Y-94992914D02*
X133369160Y-95040533D01*
X134797731Y-95088152D02*
X134797731Y-95754819D01*
X134559636Y-94707200D02*
X134321541Y-95421485D01*
X134321541Y-95421485D02*
X134940588Y-95421485D01*
X132416779Y-93214819D02*
X132416779Y-92214819D01*
X132416779Y-92214819D02*
X132797731Y-92214819D01*
X132797731Y-92214819D02*
X132892969Y-92262438D01*
X132892969Y-92262438D02*
X132940588Y-92310057D01*
X132940588Y-92310057D02*
X132988207Y-92405295D01*
X132988207Y-92405295D02*
X132988207Y-92548152D01*
X132988207Y-92548152D02*
X132940588Y-92643390D01*
X132940588Y-92643390D02*
X132892969Y-92691009D01*
X132892969Y-92691009D02*
X132797731Y-92738628D01*
X132797731Y-92738628D02*
X132416779Y-92738628D01*
X133940588Y-93214819D02*
X133369160Y-93214819D01*
X133654874Y-93214819D02*
X133654874Y-92214819D01*
X133654874Y-92214819D02*
X133559636Y-92357676D01*
X133559636Y-92357676D02*
X133464398Y-92452914D01*
X133464398Y-92452914D02*
X133369160Y-92500533D01*
X134273922Y-92214819D02*
X134892969Y-92214819D01*
X134892969Y-92214819D02*
X134559636Y-92595771D01*
X134559636Y-92595771D02*
X134702493Y-92595771D01*
X134702493Y-92595771D02*
X134797731Y-92643390D01*
X134797731Y-92643390D02*
X134845350Y-92691009D01*
X134845350Y-92691009D02*
X134892969Y-92786247D01*
X134892969Y-92786247D02*
X134892969Y-93024342D01*
X134892969Y-93024342D02*
X134845350Y-93119580D01*
X134845350Y-93119580D02*
X134797731Y-93167200D01*
X134797731Y-93167200D02*
X134702493Y-93214819D01*
X134702493Y-93214819D02*
X134416779Y-93214819D01*
X134416779Y-93214819D02*
X134321541Y-93167200D01*
X134321541Y-93167200D02*
X134273922Y-93119580D01*
X132416779Y-90674819D02*
X132416779Y-89674819D01*
X132416779Y-89674819D02*
X132797731Y-89674819D01*
X132797731Y-89674819D02*
X132892969Y-89722438D01*
X132892969Y-89722438D02*
X132940588Y-89770057D01*
X132940588Y-89770057D02*
X132988207Y-89865295D01*
X132988207Y-89865295D02*
X132988207Y-90008152D01*
X132988207Y-90008152D02*
X132940588Y-90103390D01*
X132940588Y-90103390D02*
X132892969Y-90151009D01*
X132892969Y-90151009D02*
X132797731Y-90198628D01*
X132797731Y-90198628D02*
X132416779Y-90198628D01*
X133940588Y-90674819D02*
X133369160Y-90674819D01*
X133654874Y-90674819D02*
X133654874Y-89674819D01*
X133654874Y-89674819D02*
X133559636Y-89817676D01*
X133559636Y-89817676D02*
X133464398Y-89912914D01*
X133464398Y-89912914D02*
X133369160Y-89960533D01*
X134321541Y-89770057D02*
X134369160Y-89722438D01*
X134369160Y-89722438D02*
X134464398Y-89674819D01*
X134464398Y-89674819D02*
X134702493Y-89674819D01*
X134702493Y-89674819D02*
X134797731Y-89722438D01*
X134797731Y-89722438D02*
X134845350Y-89770057D01*
X134845350Y-89770057D02*
X134892969Y-89865295D01*
X134892969Y-89865295D02*
X134892969Y-89960533D01*
X134892969Y-89960533D02*
X134845350Y-90103390D01*
X134845350Y-90103390D02*
X134273922Y-90674819D01*
X134273922Y-90674819D02*
X134892969Y-90674819D01*
X169871938Y-93161746D02*
X169871938Y-92161746D01*
X169871938Y-92161746D02*
X170205271Y-92876031D01*
X170205271Y-92876031D02*
X170538604Y-92161746D01*
X170538604Y-92161746D02*
X170538604Y-93161746D01*
X171205271Y-92161746D02*
X171395747Y-92161746D01*
X171395747Y-92161746D02*
X171490985Y-92209365D01*
X171490985Y-92209365D02*
X171586223Y-92304603D01*
X171586223Y-92304603D02*
X171633842Y-92495079D01*
X171633842Y-92495079D02*
X171633842Y-92828412D01*
X171633842Y-92828412D02*
X171586223Y-93018888D01*
X171586223Y-93018888D02*
X171490985Y-93114127D01*
X171490985Y-93114127D02*
X171395747Y-93161746D01*
X171395747Y-93161746D02*
X171205271Y-93161746D01*
X171205271Y-93161746D02*
X171110033Y-93114127D01*
X171110033Y-93114127D02*
X171014795Y-93018888D01*
X171014795Y-93018888D02*
X170967176Y-92828412D01*
X170967176Y-92828412D02*
X170967176Y-92495079D01*
X170967176Y-92495079D02*
X171014795Y-92304603D01*
X171014795Y-92304603D02*
X171110033Y-92209365D01*
X171110033Y-92209365D02*
X171205271Y-92161746D01*
X172014795Y-93114127D02*
X172157652Y-93161746D01*
X172157652Y-93161746D02*
X172395747Y-93161746D01*
X172395747Y-93161746D02*
X172490985Y-93114127D01*
X172490985Y-93114127D02*
X172538604Y-93066507D01*
X172538604Y-93066507D02*
X172586223Y-92971269D01*
X172586223Y-92971269D02*
X172586223Y-92876031D01*
X172586223Y-92876031D02*
X172538604Y-92780793D01*
X172538604Y-92780793D02*
X172490985Y-92733174D01*
X172490985Y-92733174D02*
X172395747Y-92685555D01*
X172395747Y-92685555D02*
X172205271Y-92637936D01*
X172205271Y-92637936D02*
X172110033Y-92590317D01*
X172110033Y-92590317D02*
X172062414Y-92542698D01*
X172062414Y-92542698D02*
X172014795Y-92447460D01*
X172014795Y-92447460D02*
X172014795Y-92352222D01*
X172014795Y-92352222D02*
X172062414Y-92256984D01*
X172062414Y-92256984D02*
X172110033Y-92209365D01*
X172110033Y-92209365D02*
X172205271Y-92161746D01*
X172205271Y-92161746D02*
X172443366Y-92161746D01*
X172443366Y-92161746D02*
X172586223Y-92209365D01*
X173014795Y-93161746D02*
X173014795Y-92161746D01*
X171040588Y-84642438D02*
X170945350Y-84594819D01*
X170945350Y-84594819D02*
X170802493Y-84594819D01*
X170802493Y-84594819D02*
X170659636Y-84642438D01*
X170659636Y-84642438D02*
X170564398Y-84737676D01*
X170564398Y-84737676D02*
X170516779Y-84832914D01*
X170516779Y-84832914D02*
X170469160Y-85023390D01*
X170469160Y-85023390D02*
X170469160Y-85166247D01*
X170469160Y-85166247D02*
X170516779Y-85356723D01*
X170516779Y-85356723D02*
X170564398Y-85451961D01*
X170564398Y-85451961D02*
X170659636Y-85547200D01*
X170659636Y-85547200D02*
X170802493Y-85594819D01*
X170802493Y-85594819D02*
X170897731Y-85594819D01*
X170897731Y-85594819D02*
X171040588Y-85547200D01*
X171040588Y-85547200D02*
X171088207Y-85499580D01*
X171088207Y-85499580D02*
X171088207Y-85166247D01*
X171088207Y-85166247D02*
X170897731Y-85166247D01*
X171516779Y-85594819D02*
X171516779Y-84594819D01*
X171516779Y-84594819D02*
X172088207Y-85594819D01*
X172088207Y-85594819D02*
X172088207Y-84594819D01*
X172564398Y-85594819D02*
X172564398Y-84594819D01*
X172564398Y-84594819D02*
X172802493Y-84594819D01*
X172802493Y-84594819D02*
X172945350Y-84642438D01*
X172945350Y-84642438D02*
X173040588Y-84737676D01*
X173040588Y-84737676D02*
X173088207Y-84832914D01*
X173088207Y-84832914D02*
X173135826Y-85023390D01*
X173135826Y-85023390D02*
X173135826Y-85166247D01*
X173135826Y-85166247D02*
X173088207Y-85356723D01*
X173088207Y-85356723D02*
X173040588Y-85451961D01*
X173040588Y-85451961D02*
X172945350Y-85547200D01*
X172945350Y-85547200D02*
X172802493Y-85594819D01*
X172802493Y-85594819D02*
X172564398Y-85594819D01*
X174215588Y-68132438D02*
X174120350Y-68084819D01*
X174120350Y-68084819D02*
X173977493Y-68084819D01*
X173977493Y-68084819D02*
X173834636Y-68132438D01*
X173834636Y-68132438D02*
X173739398Y-68227676D01*
X173739398Y-68227676D02*
X173691779Y-68322914D01*
X173691779Y-68322914D02*
X173644160Y-68513390D01*
X173644160Y-68513390D02*
X173644160Y-68656247D01*
X173644160Y-68656247D02*
X173691779Y-68846723D01*
X173691779Y-68846723D02*
X173739398Y-68941961D01*
X173739398Y-68941961D02*
X173834636Y-69037200D01*
X173834636Y-69037200D02*
X173977493Y-69084819D01*
X173977493Y-69084819D02*
X174072731Y-69084819D01*
X174072731Y-69084819D02*
X174215588Y-69037200D01*
X174215588Y-69037200D02*
X174263207Y-68989580D01*
X174263207Y-68989580D02*
X174263207Y-68656247D01*
X174263207Y-68656247D02*
X174072731Y-68656247D01*
X174691779Y-69084819D02*
X174691779Y-68084819D01*
X174691779Y-68084819D02*
X175263207Y-69084819D01*
X175263207Y-69084819D02*
X175263207Y-68084819D01*
X175739398Y-69084819D02*
X175739398Y-68084819D01*
X175739398Y-68084819D02*
X175977493Y-68084819D01*
X175977493Y-68084819D02*
X176120350Y-68132438D01*
X176120350Y-68132438D02*
X176215588Y-68227676D01*
X176215588Y-68227676D02*
X176263207Y-68322914D01*
X176263207Y-68322914D02*
X176310826Y-68513390D01*
X176310826Y-68513390D02*
X176310826Y-68656247D01*
X176310826Y-68656247D02*
X176263207Y-68846723D01*
X176263207Y-68846723D02*
X176215588Y-68941961D01*
X176215588Y-68941961D02*
X176120350Y-69037200D01*
X176120350Y-69037200D02*
X175977493Y-69084819D01*
X175977493Y-69084819D02*
X175739398Y-69084819D01*
X170421541Y-97294819D02*
X171040588Y-97294819D01*
X171040588Y-97294819D02*
X170707255Y-97675771D01*
X170707255Y-97675771D02*
X170850112Y-97675771D01*
X170850112Y-97675771D02*
X170945350Y-97723390D01*
X170945350Y-97723390D02*
X170992969Y-97771009D01*
X170992969Y-97771009D02*
X171040588Y-97866247D01*
X171040588Y-97866247D02*
X171040588Y-98104342D01*
X171040588Y-98104342D02*
X170992969Y-98199580D01*
X170992969Y-98199580D02*
X170945350Y-98247200D01*
X170945350Y-98247200D02*
X170850112Y-98294819D01*
X170850112Y-98294819D02*
X170564398Y-98294819D01*
X170564398Y-98294819D02*
X170469160Y-98247200D01*
X170469160Y-98247200D02*
X170421541Y-98199580D01*
X171326303Y-97294819D02*
X171659636Y-98294819D01*
X171659636Y-98294819D02*
X171992969Y-97294819D01*
X172231065Y-97294819D02*
X172850112Y-97294819D01*
X172850112Y-97294819D02*
X172516779Y-97675771D01*
X172516779Y-97675771D02*
X172659636Y-97675771D01*
X172659636Y-97675771D02*
X172754874Y-97723390D01*
X172754874Y-97723390D02*
X172802493Y-97771009D01*
X172802493Y-97771009D02*
X172850112Y-97866247D01*
X172850112Y-97866247D02*
X172850112Y-98104342D01*
X172850112Y-98104342D02*
X172802493Y-98199580D01*
X172802493Y-98199580D02*
X172754874Y-98247200D01*
X172754874Y-98247200D02*
X172659636Y-98294819D01*
X172659636Y-98294819D02*
X172373922Y-98294819D01*
X172373922Y-98294819D02*
X172278684Y-98247200D01*
X172278684Y-98247200D02*
X172231065Y-98199580D01*
X174326779Y-74164819D02*
X174326779Y-73164819D01*
X174326779Y-73164819D02*
X174564874Y-73164819D01*
X174564874Y-73164819D02*
X174707731Y-73212438D01*
X174707731Y-73212438D02*
X174802969Y-73307676D01*
X174802969Y-73307676D02*
X174850588Y-73402914D01*
X174850588Y-73402914D02*
X174898207Y-73593390D01*
X174898207Y-73593390D02*
X174898207Y-73736247D01*
X174898207Y-73736247D02*
X174850588Y-73926723D01*
X174850588Y-73926723D02*
X174802969Y-74021961D01*
X174802969Y-74021961D02*
X174707731Y-74117200D01*
X174707731Y-74117200D02*
X174564874Y-74164819D01*
X174564874Y-74164819D02*
X174326779Y-74164819D01*
X175183922Y-73164819D02*
X175755350Y-73164819D01*
X175469636Y-74164819D02*
X175469636Y-73164819D01*
D12*
X121833871Y-120834438D02*
X122310061Y-122834438D01*
X122310061Y-122834438D02*
X122691014Y-121405866D01*
X122691014Y-121405866D02*
X123071966Y-122834438D01*
X123071966Y-122834438D02*
X123548157Y-120834438D01*
X124310061Y-122834438D02*
X124310061Y-120834438D01*
X125167204Y-122263009D02*
X126119585Y-122263009D01*
X124976728Y-122834438D02*
X125643394Y-120834438D01*
X125643394Y-120834438D02*
X126310061Y-122834438D01*
X126691014Y-120834438D02*
X127833871Y-120834438D01*
X127262442Y-122834438D02*
X127262442Y-120834438D01*
X128500538Y-121786819D02*
X129167205Y-121786819D01*
X129452919Y-122834438D02*
X128500538Y-122834438D01*
X128500538Y-122834438D02*
X128500538Y-120834438D01*
X128500538Y-120834438D02*
X129452919Y-120834438D01*
X131452919Y-122834438D02*
X130786252Y-121882057D01*
X130310062Y-122834438D02*
X130310062Y-120834438D01*
X130310062Y-120834438D02*
X131071967Y-120834438D01*
X131071967Y-120834438D02*
X131262443Y-120929676D01*
X131262443Y-120929676D02*
X131357681Y-121024914D01*
X131357681Y-121024914D02*
X131452919Y-121215390D01*
X131452919Y-121215390D02*
X131452919Y-121501104D01*
X131452919Y-121501104D02*
X131357681Y-121691580D01*
X131357681Y-121691580D02*
X131262443Y-121786819D01*
X131262443Y-121786819D02*
X131071967Y-121882057D01*
X131071967Y-121882057D02*
X130310062Y-121882057D01*
X133643396Y-120834438D02*
X134881491Y-120834438D01*
X134881491Y-120834438D02*
X134214824Y-121596342D01*
X134214824Y-121596342D02*
X134500539Y-121596342D01*
X134500539Y-121596342D02*
X134691015Y-121691580D01*
X134691015Y-121691580D02*
X134786253Y-121786819D01*
X134786253Y-121786819D02*
X134881491Y-121977295D01*
X134881491Y-121977295D02*
X134881491Y-122453485D01*
X134881491Y-122453485D02*
X134786253Y-122643961D01*
X134786253Y-122643961D02*
X134691015Y-122739200D01*
X134691015Y-122739200D02*
X134500539Y-122834438D01*
X134500539Y-122834438D02*
X133929110Y-122834438D01*
X133929110Y-122834438D02*
X133738634Y-122739200D01*
X133738634Y-122739200D02*
X133643396Y-122643961D01*
X136119586Y-120834438D02*
X136310063Y-120834438D01*
X136310063Y-120834438D02*
X136500539Y-120929676D01*
X136500539Y-120929676D02*
X136595777Y-121024914D01*
X136595777Y-121024914D02*
X136691015Y-121215390D01*
X136691015Y-121215390D02*
X136786253Y-121596342D01*
X136786253Y-121596342D02*
X136786253Y-122072533D01*
X136786253Y-122072533D02*
X136691015Y-122453485D01*
X136691015Y-122453485D02*
X136595777Y-122643961D01*
X136595777Y-122643961D02*
X136500539Y-122739200D01*
X136500539Y-122739200D02*
X136310063Y-122834438D01*
X136310063Y-122834438D02*
X136119586Y-122834438D01*
X136119586Y-122834438D02*
X135929110Y-122739200D01*
X135929110Y-122739200D02*
X135833872Y-122643961D01*
X135833872Y-122643961D02*
X135738634Y-122453485D01*
X135738634Y-122453485D02*
X135643396Y-122072533D01*
X135643396Y-122072533D02*
X135643396Y-121596342D01*
X135643396Y-121596342D02*
X135738634Y-121215390D01*
X135738634Y-121215390D02*
X135833872Y-121024914D01*
X135833872Y-121024914D02*
X135929110Y-120929676D01*
X135929110Y-120929676D02*
X136119586Y-120834438D01*
X138024348Y-120834438D02*
X138214825Y-120834438D01*
X138214825Y-120834438D02*
X138405301Y-120929676D01*
X138405301Y-120929676D02*
X138500539Y-121024914D01*
X138500539Y-121024914D02*
X138595777Y-121215390D01*
X138595777Y-121215390D02*
X138691015Y-121596342D01*
X138691015Y-121596342D02*
X138691015Y-122072533D01*
X138691015Y-122072533D02*
X138595777Y-122453485D01*
X138595777Y-122453485D02*
X138500539Y-122643961D01*
X138500539Y-122643961D02*
X138405301Y-122739200D01*
X138405301Y-122739200D02*
X138214825Y-122834438D01*
X138214825Y-122834438D02*
X138024348Y-122834438D01*
X138024348Y-122834438D02*
X137833872Y-122739200D01*
X137833872Y-122739200D02*
X137738634Y-122643961D01*
X137738634Y-122643961D02*
X137643396Y-122453485D01*
X137643396Y-122453485D02*
X137548158Y-122072533D01*
X137548158Y-122072533D02*
X137548158Y-121596342D01*
X137548158Y-121596342D02*
X137643396Y-121215390D01*
X137643396Y-121215390D02*
X137738634Y-121024914D01*
X137738634Y-121024914D02*
X137833872Y-120929676D01*
X137833872Y-120929676D02*
X138024348Y-120834438D01*
X139929110Y-120834438D02*
X140119587Y-120834438D01*
X140119587Y-120834438D02*
X140310063Y-120929676D01*
X140310063Y-120929676D02*
X140405301Y-121024914D01*
X140405301Y-121024914D02*
X140500539Y-121215390D01*
X140500539Y-121215390D02*
X140595777Y-121596342D01*
X140595777Y-121596342D02*
X140595777Y-122072533D01*
X140595777Y-122072533D02*
X140500539Y-122453485D01*
X140500539Y-122453485D02*
X140405301Y-122643961D01*
X140405301Y-122643961D02*
X140310063Y-122739200D01*
X140310063Y-122739200D02*
X140119587Y-122834438D01*
X140119587Y-122834438D02*
X139929110Y-122834438D01*
X139929110Y-122834438D02*
X139738634Y-122739200D01*
X139738634Y-122739200D02*
X139643396Y-122643961D01*
X139643396Y-122643961D02*
X139548158Y-122453485D01*
X139548158Y-122453485D02*
X139452920Y-122072533D01*
X139452920Y-122072533D02*
X139452920Y-121596342D01*
X139452920Y-121596342D02*
X139548158Y-121215390D01*
X139548158Y-121215390D02*
X139643396Y-121024914D01*
X139643396Y-121024914D02*
X139738634Y-120929676D01*
X139738634Y-120929676D02*
X139929110Y-120834438D01*
X122024347Y-126054438D02*
X122024347Y-124054438D01*
X122024347Y-124054438D02*
X123167204Y-126054438D01*
X123167204Y-126054438D02*
X123167204Y-124054438D01*
X124119585Y-126054438D02*
X124119585Y-124054438D01*
X125071966Y-126054438D02*
X125071966Y-124054438D01*
X126214823Y-126054438D02*
X125357680Y-124911580D01*
X126214823Y-124054438D02*
X125071966Y-125197295D01*
X127452918Y-124054438D02*
X127833871Y-124054438D01*
X127833871Y-124054438D02*
X128024347Y-124149676D01*
X128024347Y-124149676D02*
X128214823Y-124340152D01*
X128214823Y-124340152D02*
X128310061Y-124721104D01*
X128310061Y-124721104D02*
X128310061Y-125387771D01*
X128310061Y-125387771D02*
X128214823Y-125768723D01*
X128214823Y-125768723D02*
X128024347Y-125959200D01*
X128024347Y-125959200D02*
X127833871Y-126054438D01*
X127833871Y-126054438D02*
X127452918Y-126054438D01*
X127452918Y-126054438D02*
X127262442Y-125959200D01*
X127262442Y-125959200D02*
X127071966Y-125768723D01*
X127071966Y-125768723D02*
X126976728Y-125387771D01*
X126976728Y-125387771D02*
X126976728Y-124721104D01*
X126976728Y-124721104D02*
X127071966Y-124340152D01*
X127071966Y-124340152D02*
X127262442Y-124149676D01*
X127262442Y-124149676D02*
X127452918Y-124054438D01*
X129167204Y-126054438D02*
X129167204Y-124054438D01*
X129167204Y-124054438D02*
X129643394Y-124054438D01*
X129643394Y-124054438D02*
X129929109Y-124149676D01*
X129929109Y-124149676D02*
X130119585Y-124340152D01*
X130119585Y-124340152D02*
X130214823Y-124530628D01*
X130214823Y-124530628D02*
X130310061Y-124911580D01*
X130310061Y-124911580D02*
X130310061Y-125197295D01*
X130310061Y-125197295D02*
X130214823Y-125578247D01*
X130214823Y-125578247D02*
X130119585Y-125768723D01*
X130119585Y-125768723D02*
X129929109Y-125959200D01*
X129929109Y-125959200D02*
X129643394Y-126054438D01*
X129643394Y-126054438D02*
X129167204Y-126054438D01*
X131167204Y-125006819D02*
X131833871Y-125006819D01*
X132119585Y-126054438D02*
X131167204Y-126054438D01*
X131167204Y-126054438D02*
X131167204Y-124054438D01*
X131167204Y-124054438D02*
X132119585Y-124054438D01*
X132976728Y-126054438D02*
X132976728Y-124054438D01*
X132976728Y-124054438D02*
X133643395Y-125483009D01*
X133643395Y-125483009D02*
X134310061Y-124054438D01*
X134310061Y-124054438D02*
X134310061Y-126054438D01*
X137452919Y-125006819D02*
X137738633Y-125102057D01*
X137738633Y-125102057D02*
X137833871Y-125197295D01*
X137833871Y-125197295D02*
X137929109Y-125387771D01*
X137929109Y-125387771D02*
X137929109Y-125673485D01*
X137929109Y-125673485D02*
X137833871Y-125863961D01*
X137833871Y-125863961D02*
X137738633Y-125959200D01*
X137738633Y-125959200D02*
X137548157Y-126054438D01*
X137548157Y-126054438D02*
X136786252Y-126054438D01*
X136786252Y-126054438D02*
X136786252Y-124054438D01*
X136786252Y-124054438D02*
X137452919Y-124054438D01*
X137452919Y-124054438D02*
X137643395Y-124149676D01*
X137643395Y-124149676D02*
X137738633Y-124244914D01*
X137738633Y-124244914D02*
X137833871Y-124435390D01*
X137833871Y-124435390D02*
X137833871Y-124625866D01*
X137833871Y-124625866D02*
X137738633Y-124816342D01*
X137738633Y-124816342D02*
X137643395Y-124911580D01*
X137643395Y-124911580D02*
X137452919Y-125006819D01*
X137452919Y-125006819D02*
X136786252Y-125006819D01*
X138691014Y-125483009D02*
X139643395Y-125483009D01*
X138500538Y-126054438D02*
X139167204Y-124054438D01*
X139167204Y-124054438D02*
X139833871Y-126054438D01*
X141643395Y-126054438D02*
X140976728Y-125102057D01*
X140500538Y-126054438D02*
X140500538Y-124054438D01*
X140500538Y-124054438D02*
X141262443Y-124054438D01*
X141262443Y-124054438D02*
X141452919Y-124149676D01*
X141452919Y-124149676D02*
X141548157Y-124244914D01*
X141548157Y-124244914D02*
X141643395Y-124435390D01*
X141643395Y-124435390D02*
X141643395Y-124721104D01*
X141643395Y-124721104D02*
X141548157Y-124911580D01*
X141548157Y-124911580D02*
X141452919Y-125006819D01*
X141452919Y-125006819D02*
X141262443Y-125102057D01*
X141262443Y-125102057D02*
X140500538Y-125102057D01*
X142214824Y-124054438D02*
X143357681Y-124054438D01*
X142786252Y-126054438D02*
X142786252Y-124054438D01*
X144024348Y-126054438D02*
X144024348Y-124054438D01*
X144024348Y-124054438D02*
X145167205Y-126054438D01*
X145167205Y-126054438D02*
X145167205Y-124054438D01*
X146119586Y-126054438D02*
X146119586Y-124054438D01*
X147071967Y-126054438D02*
X147071967Y-124054438D01*
X148214824Y-126054438D02*
X147357681Y-124911580D01*
X148214824Y-124054438D02*
X147071967Y-125197295D01*
X123071966Y-129274438D02*
X121929109Y-129274438D01*
X122500537Y-129274438D02*
X122500537Y-127274438D01*
X122500537Y-127274438D02*
X122310061Y-127560152D01*
X122310061Y-127560152D02*
X122119585Y-127750628D01*
X122119585Y-127750628D02*
X121929109Y-127845866D01*
X123738633Y-127274438D02*
X125071966Y-127274438D01*
X125071966Y-127274438D02*
X124214823Y-129274438D01*
X125833871Y-129083961D02*
X125929109Y-129179200D01*
X125929109Y-129179200D02*
X125833871Y-129274438D01*
X125833871Y-129274438D02*
X125738633Y-129179200D01*
X125738633Y-129179200D02*
X125833871Y-129083961D01*
X125833871Y-129083961D02*
X125833871Y-129274438D01*
X127167204Y-127274438D02*
X127357681Y-127274438D01*
X127357681Y-127274438D02*
X127548157Y-127369676D01*
X127548157Y-127369676D02*
X127643395Y-127464914D01*
X127643395Y-127464914D02*
X127738633Y-127655390D01*
X127738633Y-127655390D02*
X127833871Y-128036342D01*
X127833871Y-128036342D02*
X127833871Y-128512533D01*
X127833871Y-128512533D02*
X127738633Y-128893485D01*
X127738633Y-128893485D02*
X127643395Y-129083961D01*
X127643395Y-129083961D02*
X127548157Y-129179200D01*
X127548157Y-129179200D02*
X127357681Y-129274438D01*
X127357681Y-129274438D02*
X127167204Y-129274438D01*
X127167204Y-129274438D02*
X126976728Y-129179200D01*
X126976728Y-129179200D02*
X126881490Y-129083961D01*
X126881490Y-129083961D02*
X126786252Y-128893485D01*
X126786252Y-128893485D02*
X126691014Y-128512533D01*
X126691014Y-128512533D02*
X126691014Y-128036342D01*
X126691014Y-128036342D02*
X126786252Y-127655390D01*
X126786252Y-127655390D02*
X126881490Y-127464914D01*
X126881490Y-127464914D02*
X126976728Y-127369676D01*
X126976728Y-127369676D02*
X127167204Y-127274438D01*
X128500538Y-127274438D02*
X129833871Y-127274438D01*
X129833871Y-127274438D02*
X128976728Y-129274438D01*
X130595776Y-129083961D02*
X130691014Y-129179200D01*
X130691014Y-129179200D02*
X130595776Y-129274438D01*
X130595776Y-129274438D02*
X130500538Y-129179200D01*
X130500538Y-129179200D02*
X130595776Y-129083961D01*
X130595776Y-129083961D02*
X130595776Y-129274438D01*
X131452919Y-127464914D02*
X131548157Y-127369676D01*
X131548157Y-127369676D02*
X131738633Y-127274438D01*
X131738633Y-127274438D02*
X132214824Y-127274438D01*
X132214824Y-127274438D02*
X132405300Y-127369676D01*
X132405300Y-127369676D02*
X132500538Y-127464914D01*
X132500538Y-127464914D02*
X132595776Y-127655390D01*
X132595776Y-127655390D02*
X132595776Y-127845866D01*
X132595776Y-127845866D02*
X132500538Y-128131580D01*
X132500538Y-128131580D02*
X131357681Y-129274438D01*
X131357681Y-129274438D02*
X132595776Y-129274438D01*
X133833871Y-127274438D02*
X134024348Y-127274438D01*
X134024348Y-127274438D02*
X134214824Y-127369676D01*
X134214824Y-127369676D02*
X134310062Y-127464914D01*
X134310062Y-127464914D02*
X134405300Y-127655390D01*
X134405300Y-127655390D02*
X134500538Y-128036342D01*
X134500538Y-128036342D02*
X134500538Y-128512533D01*
X134500538Y-128512533D02*
X134405300Y-128893485D01*
X134405300Y-128893485D02*
X134310062Y-129083961D01*
X134310062Y-129083961D02*
X134214824Y-129179200D01*
X134214824Y-129179200D02*
X134024348Y-129274438D01*
X134024348Y-129274438D02*
X133833871Y-129274438D01*
X133833871Y-129274438D02*
X133643395Y-129179200D01*
X133643395Y-129179200D02*
X133548157Y-129083961D01*
X133548157Y-129083961D02*
X133452919Y-128893485D01*
X133452919Y-128893485D02*
X133357681Y-128512533D01*
X133357681Y-128512533D02*
X133357681Y-128036342D01*
X133357681Y-128036342D02*
X133452919Y-127655390D01*
X133452919Y-127655390D02*
X133548157Y-127464914D01*
X133548157Y-127464914D02*
X133643395Y-127369676D01*
X133643395Y-127369676D02*
X133833871Y-127274438D01*
X135262443Y-127464914D02*
X135357681Y-127369676D01*
X135357681Y-127369676D02*
X135548157Y-127274438D01*
X135548157Y-127274438D02*
X136024348Y-127274438D01*
X136024348Y-127274438D02*
X136214824Y-127369676D01*
X136214824Y-127369676D02*
X136310062Y-127464914D01*
X136310062Y-127464914D02*
X136405300Y-127655390D01*
X136405300Y-127655390D02*
X136405300Y-127845866D01*
X136405300Y-127845866D02*
X136310062Y-128131580D01*
X136310062Y-128131580D02*
X135167205Y-129274438D01*
X135167205Y-129274438D02*
X136405300Y-129274438D01*
X137071967Y-127274438D02*
X138310062Y-127274438D01*
X138310062Y-127274438D02*
X137643395Y-128036342D01*
X137643395Y-128036342D02*
X137929110Y-128036342D01*
X137929110Y-128036342D02*
X138119586Y-128131580D01*
X138119586Y-128131580D02*
X138214824Y-128226819D01*
X138214824Y-128226819D02*
X138310062Y-128417295D01*
X138310062Y-128417295D02*
X138310062Y-128893485D01*
X138310062Y-128893485D02*
X138214824Y-129083961D01*
X138214824Y-129083961D02*
X138119586Y-129179200D01*
X138119586Y-129179200D02*
X137929110Y-129274438D01*
X137929110Y-129274438D02*
X137357681Y-129274438D01*
X137357681Y-129274438D02*
X137167205Y-129179200D01*
X137167205Y-129179200D02*
X137071967Y-129083961D01*
D10*
X160896541Y-75704819D02*
X161515588Y-75704819D01*
X161515588Y-75704819D02*
X161182255Y-76085771D01*
X161182255Y-76085771D02*
X161325112Y-76085771D01*
X161325112Y-76085771D02*
X161420350Y-76133390D01*
X161420350Y-76133390D02*
X161467969Y-76181009D01*
X161467969Y-76181009D02*
X161515588Y-76276247D01*
X161515588Y-76276247D02*
X161515588Y-76514342D01*
X161515588Y-76514342D02*
X161467969Y-76609580D01*
X161467969Y-76609580D02*
X161420350Y-76657200D01*
X161420350Y-76657200D02*
X161325112Y-76704819D01*
X161325112Y-76704819D02*
X161039398Y-76704819D01*
X161039398Y-76704819D02*
X160944160Y-76657200D01*
X160944160Y-76657200D02*
X160896541Y-76609580D01*
X161801303Y-75704819D02*
X162134636Y-76704819D01*
X162134636Y-76704819D02*
X162467969Y-75704819D01*
X162706065Y-75704819D02*
X163325112Y-75704819D01*
X163325112Y-75704819D02*
X162991779Y-76085771D01*
X162991779Y-76085771D02*
X163134636Y-76085771D01*
X163134636Y-76085771D02*
X163229874Y-76133390D01*
X163229874Y-76133390D02*
X163277493Y-76181009D01*
X163277493Y-76181009D02*
X163325112Y-76276247D01*
X163325112Y-76276247D02*
X163325112Y-76514342D01*
X163325112Y-76514342D02*
X163277493Y-76609580D01*
X163277493Y-76609580D02*
X163229874Y-76657200D01*
X163229874Y-76657200D02*
X163134636Y-76704819D01*
X163134636Y-76704819D02*
X162848922Y-76704819D01*
X162848922Y-76704819D02*
X162753684Y-76657200D01*
X162753684Y-76657200D02*
X162706065Y-76609580D01*
X171723207Y-88039580D02*
X171675588Y-88087200D01*
X171675588Y-88087200D02*
X171532731Y-88134819D01*
X171532731Y-88134819D02*
X171437493Y-88134819D01*
X171437493Y-88134819D02*
X171294636Y-88087200D01*
X171294636Y-88087200D02*
X171199398Y-87991961D01*
X171199398Y-87991961D02*
X171151779Y-87896723D01*
X171151779Y-87896723D02*
X171104160Y-87706247D01*
X171104160Y-87706247D02*
X171104160Y-87563390D01*
X171104160Y-87563390D02*
X171151779Y-87372914D01*
X171151779Y-87372914D02*
X171199398Y-87277676D01*
X171199398Y-87277676D02*
X171294636Y-87182438D01*
X171294636Y-87182438D02*
X171437493Y-87134819D01*
X171437493Y-87134819D02*
X171532731Y-87134819D01*
X171532731Y-87134819D02*
X171675588Y-87182438D01*
X171675588Y-87182438D02*
X171723207Y-87230057D01*
X172151779Y-87611009D02*
X172485112Y-87611009D01*
X172627969Y-88134819D02*
X172151779Y-88134819D01*
X172151779Y-88134819D02*
X172151779Y-87134819D01*
X172151779Y-87134819D02*
X172627969Y-87134819D01*
X173596541Y-75704819D02*
X174215588Y-75704819D01*
X174215588Y-75704819D02*
X173882255Y-76085771D01*
X173882255Y-76085771D02*
X174025112Y-76085771D01*
X174025112Y-76085771D02*
X174120350Y-76133390D01*
X174120350Y-76133390D02*
X174167969Y-76181009D01*
X174167969Y-76181009D02*
X174215588Y-76276247D01*
X174215588Y-76276247D02*
X174215588Y-76514342D01*
X174215588Y-76514342D02*
X174167969Y-76609580D01*
X174167969Y-76609580D02*
X174120350Y-76657200D01*
X174120350Y-76657200D02*
X174025112Y-76704819D01*
X174025112Y-76704819D02*
X173739398Y-76704819D01*
X173739398Y-76704819D02*
X173644160Y-76657200D01*
X173644160Y-76657200D02*
X173596541Y-76609580D01*
X174501303Y-75704819D02*
X174834636Y-76704819D01*
X174834636Y-76704819D02*
X175167969Y-75704819D01*
X175406065Y-75704819D02*
X176025112Y-75704819D01*
X176025112Y-75704819D02*
X175691779Y-76085771D01*
X175691779Y-76085771D02*
X175834636Y-76085771D01*
X175834636Y-76085771D02*
X175929874Y-76133390D01*
X175929874Y-76133390D02*
X175977493Y-76181009D01*
X175977493Y-76181009D02*
X176025112Y-76276247D01*
X176025112Y-76276247D02*
X176025112Y-76514342D01*
X176025112Y-76514342D02*
X175977493Y-76609580D01*
X175977493Y-76609580D02*
X175929874Y-76657200D01*
X175929874Y-76657200D02*
X175834636Y-76704819D01*
X175834636Y-76704819D02*
X175548922Y-76704819D01*
X175548922Y-76704819D02*
X175453684Y-76657200D01*
X175453684Y-76657200D02*
X175406065Y-76609580D01*
X170469160Y-90627200D02*
X170612017Y-90674819D01*
X170612017Y-90674819D02*
X170850112Y-90674819D01*
X170850112Y-90674819D02*
X170945350Y-90627200D01*
X170945350Y-90627200D02*
X170992969Y-90579580D01*
X170992969Y-90579580D02*
X171040588Y-90484342D01*
X171040588Y-90484342D02*
X171040588Y-90389104D01*
X171040588Y-90389104D02*
X170992969Y-90293866D01*
X170992969Y-90293866D02*
X170945350Y-90246247D01*
X170945350Y-90246247D02*
X170850112Y-90198628D01*
X170850112Y-90198628D02*
X170659636Y-90151009D01*
X170659636Y-90151009D02*
X170564398Y-90103390D01*
X170564398Y-90103390D02*
X170516779Y-90055771D01*
X170516779Y-90055771D02*
X170469160Y-89960533D01*
X170469160Y-89960533D02*
X170469160Y-89865295D01*
X170469160Y-89865295D02*
X170516779Y-89770057D01*
X170516779Y-89770057D02*
X170564398Y-89722438D01*
X170564398Y-89722438D02*
X170659636Y-89674819D01*
X170659636Y-89674819D02*
X170897731Y-89674819D01*
X170897731Y-89674819D02*
X171040588Y-89722438D01*
X172040588Y-90579580D02*
X171992969Y-90627200D01*
X171992969Y-90627200D02*
X171850112Y-90674819D01*
X171850112Y-90674819D02*
X171754874Y-90674819D01*
X171754874Y-90674819D02*
X171612017Y-90627200D01*
X171612017Y-90627200D02*
X171516779Y-90531961D01*
X171516779Y-90531961D02*
X171469160Y-90436723D01*
X171469160Y-90436723D02*
X171421541Y-90246247D01*
X171421541Y-90246247D02*
X171421541Y-90103390D01*
X171421541Y-90103390D02*
X171469160Y-89912914D01*
X171469160Y-89912914D02*
X171516779Y-89817676D01*
X171516779Y-89817676D02*
X171612017Y-89722438D01*
X171612017Y-89722438D02*
X171754874Y-89674819D01*
X171754874Y-89674819D02*
X171850112Y-89674819D01*
X171850112Y-89674819D02*
X171992969Y-89722438D01*
X171992969Y-89722438D02*
X172040588Y-89770057D01*
X172469160Y-90674819D02*
X172469160Y-89674819D01*
X173040588Y-90674819D02*
X172612017Y-90103390D01*
X173040588Y-89674819D02*
X172469160Y-90246247D01*
X161626779Y-74164819D02*
X161626779Y-73164819D01*
X161626779Y-73164819D02*
X161864874Y-73164819D01*
X161864874Y-73164819D02*
X162007731Y-73212438D01*
X162007731Y-73212438D02*
X162102969Y-73307676D01*
X162102969Y-73307676D02*
X162150588Y-73402914D01*
X162150588Y-73402914D02*
X162198207Y-73593390D01*
X162198207Y-73593390D02*
X162198207Y-73736247D01*
X162198207Y-73736247D02*
X162150588Y-73926723D01*
X162150588Y-73926723D02*
X162102969Y-74021961D01*
X162102969Y-74021961D02*
X162007731Y-74117200D01*
X162007731Y-74117200D02*
X161864874Y-74164819D01*
X161864874Y-74164819D02*
X161626779Y-74164819D01*
X162483922Y-73164819D02*
X163055350Y-73164819D01*
X162769636Y-74164819D02*
X162769636Y-73164819D01*
X160944160Y-71577200D02*
X161087017Y-71624819D01*
X161087017Y-71624819D02*
X161325112Y-71624819D01*
X161325112Y-71624819D02*
X161420350Y-71577200D01*
X161420350Y-71577200D02*
X161467969Y-71529580D01*
X161467969Y-71529580D02*
X161515588Y-71434342D01*
X161515588Y-71434342D02*
X161515588Y-71339104D01*
X161515588Y-71339104D02*
X161467969Y-71243866D01*
X161467969Y-71243866D02*
X161420350Y-71196247D01*
X161420350Y-71196247D02*
X161325112Y-71148628D01*
X161325112Y-71148628D02*
X161134636Y-71101009D01*
X161134636Y-71101009D02*
X161039398Y-71053390D01*
X161039398Y-71053390D02*
X160991779Y-71005771D01*
X160991779Y-71005771D02*
X160944160Y-70910533D01*
X160944160Y-70910533D02*
X160944160Y-70815295D01*
X160944160Y-70815295D02*
X160991779Y-70720057D01*
X160991779Y-70720057D02*
X161039398Y-70672438D01*
X161039398Y-70672438D02*
X161134636Y-70624819D01*
X161134636Y-70624819D02*
X161372731Y-70624819D01*
X161372731Y-70624819D02*
X161515588Y-70672438D01*
X162515588Y-71529580D02*
X162467969Y-71577200D01*
X162467969Y-71577200D02*
X162325112Y-71624819D01*
X162325112Y-71624819D02*
X162229874Y-71624819D01*
X162229874Y-71624819D02*
X162087017Y-71577200D01*
X162087017Y-71577200D02*
X161991779Y-71481961D01*
X161991779Y-71481961D02*
X161944160Y-71386723D01*
X161944160Y-71386723D02*
X161896541Y-71196247D01*
X161896541Y-71196247D02*
X161896541Y-71053390D01*
X161896541Y-71053390D02*
X161944160Y-70862914D01*
X161944160Y-70862914D02*
X161991779Y-70767676D01*
X161991779Y-70767676D02*
X162087017Y-70672438D01*
X162087017Y-70672438D02*
X162229874Y-70624819D01*
X162229874Y-70624819D02*
X162325112Y-70624819D01*
X162325112Y-70624819D02*
X162467969Y-70672438D01*
X162467969Y-70672438D02*
X162515588Y-70720057D01*
X162944160Y-71624819D02*
X162944160Y-70624819D01*
X163515588Y-71624819D02*
X163087017Y-71053390D01*
X163515588Y-70624819D02*
X162944160Y-71196247D01*
X169994279Y-95754819D02*
X169994279Y-94754819D01*
X169994279Y-94754819D02*
X170327612Y-95469104D01*
X170327612Y-95469104D02*
X170660945Y-94754819D01*
X170660945Y-94754819D02*
X170660945Y-95754819D01*
X171137136Y-95754819D02*
X171137136Y-94754819D01*
X171565707Y-95707200D02*
X171708564Y-95754819D01*
X171708564Y-95754819D02*
X171946659Y-95754819D01*
X171946659Y-95754819D02*
X172041897Y-95707200D01*
X172041897Y-95707200D02*
X172089516Y-95659580D01*
X172089516Y-95659580D02*
X172137135Y-95564342D01*
X172137135Y-95564342D02*
X172137135Y-95469104D01*
X172137135Y-95469104D02*
X172089516Y-95373866D01*
X172089516Y-95373866D02*
X172041897Y-95326247D01*
X172041897Y-95326247D02*
X171946659Y-95278628D01*
X171946659Y-95278628D02*
X171756183Y-95231009D01*
X171756183Y-95231009D02*
X171660945Y-95183390D01*
X171660945Y-95183390D02*
X171613326Y-95135771D01*
X171613326Y-95135771D02*
X171565707Y-95040533D01*
X171565707Y-95040533D02*
X171565707Y-94945295D01*
X171565707Y-94945295D02*
X171613326Y-94850057D01*
X171613326Y-94850057D02*
X171660945Y-94802438D01*
X171660945Y-94802438D02*
X171756183Y-94754819D01*
X171756183Y-94754819D02*
X171994278Y-94754819D01*
X171994278Y-94754819D02*
X172137135Y-94802438D01*
X172756183Y-94754819D02*
X172946659Y-94754819D01*
X172946659Y-94754819D02*
X173041897Y-94802438D01*
X173041897Y-94802438D02*
X173137135Y-94897676D01*
X173137135Y-94897676D02*
X173184754Y-95088152D01*
X173184754Y-95088152D02*
X173184754Y-95421485D01*
X173184754Y-95421485D02*
X173137135Y-95611961D01*
X173137135Y-95611961D02*
X173041897Y-95707200D01*
X173041897Y-95707200D02*
X172946659Y-95754819D01*
X172946659Y-95754819D02*
X172756183Y-95754819D01*
X172756183Y-95754819D02*
X172660945Y-95707200D01*
X172660945Y-95707200D02*
X172565707Y-95611961D01*
X172565707Y-95611961D02*
X172518088Y-95421485D01*
X172518088Y-95421485D02*
X172518088Y-95088152D01*
X172518088Y-95088152D02*
X172565707Y-94897676D01*
X172565707Y-94897676D02*
X172660945Y-94802438D01*
X172660945Y-94802438D02*
X172756183Y-94754819D01*
X161515588Y-68132438D02*
X161420350Y-68084819D01*
X161420350Y-68084819D02*
X161277493Y-68084819D01*
X161277493Y-68084819D02*
X161134636Y-68132438D01*
X161134636Y-68132438D02*
X161039398Y-68227676D01*
X161039398Y-68227676D02*
X160991779Y-68322914D01*
X160991779Y-68322914D02*
X160944160Y-68513390D01*
X160944160Y-68513390D02*
X160944160Y-68656247D01*
X160944160Y-68656247D02*
X160991779Y-68846723D01*
X160991779Y-68846723D02*
X161039398Y-68941961D01*
X161039398Y-68941961D02*
X161134636Y-69037200D01*
X161134636Y-69037200D02*
X161277493Y-69084819D01*
X161277493Y-69084819D02*
X161372731Y-69084819D01*
X161372731Y-69084819D02*
X161515588Y-69037200D01*
X161515588Y-69037200D02*
X161563207Y-68989580D01*
X161563207Y-68989580D02*
X161563207Y-68656247D01*
X161563207Y-68656247D02*
X161372731Y-68656247D01*
X161991779Y-69084819D02*
X161991779Y-68084819D01*
X161991779Y-68084819D02*
X162563207Y-69084819D01*
X162563207Y-69084819D02*
X162563207Y-68084819D01*
X163039398Y-69084819D02*
X163039398Y-68084819D01*
X163039398Y-68084819D02*
X163277493Y-68084819D01*
X163277493Y-68084819D02*
X163420350Y-68132438D01*
X163420350Y-68132438D02*
X163515588Y-68227676D01*
X163515588Y-68227676D02*
X163563207Y-68322914D01*
X163563207Y-68322914D02*
X163610826Y-68513390D01*
X163610826Y-68513390D02*
X163610826Y-68656247D01*
X163610826Y-68656247D02*
X163563207Y-68846723D01*
X163563207Y-68846723D02*
X163515588Y-68941961D01*
X163515588Y-68941961D02*
X163420350Y-69037200D01*
X163420350Y-69037200D02*
X163277493Y-69084819D01*
X163277493Y-69084819D02*
X163039398Y-69084819D01*
X173644160Y-71577200D02*
X173787017Y-71624819D01*
X173787017Y-71624819D02*
X174025112Y-71624819D01*
X174025112Y-71624819D02*
X174120350Y-71577200D01*
X174120350Y-71577200D02*
X174167969Y-71529580D01*
X174167969Y-71529580D02*
X174215588Y-71434342D01*
X174215588Y-71434342D02*
X174215588Y-71339104D01*
X174215588Y-71339104D02*
X174167969Y-71243866D01*
X174167969Y-71243866D02*
X174120350Y-71196247D01*
X174120350Y-71196247D02*
X174025112Y-71148628D01*
X174025112Y-71148628D02*
X173834636Y-71101009D01*
X173834636Y-71101009D02*
X173739398Y-71053390D01*
X173739398Y-71053390D02*
X173691779Y-71005771D01*
X173691779Y-71005771D02*
X173644160Y-70910533D01*
X173644160Y-70910533D02*
X173644160Y-70815295D01*
X173644160Y-70815295D02*
X173691779Y-70720057D01*
X173691779Y-70720057D02*
X173739398Y-70672438D01*
X173739398Y-70672438D02*
X173834636Y-70624819D01*
X173834636Y-70624819D02*
X174072731Y-70624819D01*
X174072731Y-70624819D02*
X174215588Y-70672438D01*
X175215588Y-71529580D02*
X175167969Y-71577200D01*
X175167969Y-71577200D02*
X175025112Y-71624819D01*
X175025112Y-71624819D02*
X174929874Y-71624819D01*
X174929874Y-71624819D02*
X174787017Y-71577200D01*
X174787017Y-71577200D02*
X174691779Y-71481961D01*
X174691779Y-71481961D02*
X174644160Y-71386723D01*
X174644160Y-71386723D02*
X174596541Y-71196247D01*
X174596541Y-71196247D02*
X174596541Y-71053390D01*
X174596541Y-71053390D02*
X174644160Y-70862914D01*
X174644160Y-70862914D02*
X174691779Y-70767676D01*
X174691779Y-70767676D02*
X174787017Y-70672438D01*
X174787017Y-70672438D02*
X174929874Y-70624819D01*
X174929874Y-70624819D02*
X175025112Y-70624819D01*
X175025112Y-70624819D02*
X175167969Y-70672438D01*
X175167969Y-70672438D02*
X175215588Y-70720057D01*
X175644160Y-71624819D02*
X175644160Y-70624819D01*
X176215588Y-71624819D02*
X175787017Y-71053390D01*
X176215588Y-70624819D02*
X175644160Y-71196247D01*
X108640714Y-70304819D02*
X108640714Y-69304819D01*
X108640714Y-69304819D02*
X109021666Y-69304819D01*
X109021666Y-69304819D02*
X109116904Y-69352438D01*
X109116904Y-69352438D02*
X109164523Y-69400057D01*
X109164523Y-69400057D02*
X109212142Y-69495295D01*
X109212142Y-69495295D02*
X109212142Y-69638152D01*
X109212142Y-69638152D02*
X109164523Y-69733390D01*
X109164523Y-69733390D02*
X109116904Y-69781009D01*
X109116904Y-69781009D02*
X109021666Y-69828628D01*
X109021666Y-69828628D02*
X108640714Y-69828628D01*
X110164523Y-70304819D02*
X109593095Y-70304819D01*
X109878809Y-70304819D02*
X109878809Y-69304819D01*
X109878809Y-69304819D02*
X109783571Y-69447676D01*
X109783571Y-69447676D02*
X109688333Y-69542914D01*
X109688333Y-69542914D02*
X109593095Y-69590533D01*
X111116904Y-70304819D02*
X110545476Y-70304819D01*
X110831190Y-70304819D02*
X110831190Y-69304819D01*
X110831190Y-69304819D02*
X110735952Y-69447676D01*
X110735952Y-69447676D02*
X110640714Y-69542914D01*
X110640714Y-69542914D02*
X110545476Y-69590533D01*
X162373333Y-60339580D02*
X162325714Y-60387200D01*
X162325714Y-60387200D02*
X162182857Y-60434819D01*
X162182857Y-60434819D02*
X162087619Y-60434819D01*
X162087619Y-60434819D02*
X161944762Y-60387200D01*
X161944762Y-60387200D02*
X161849524Y-60291961D01*
X161849524Y-60291961D02*
X161801905Y-60196723D01*
X161801905Y-60196723D02*
X161754286Y-60006247D01*
X161754286Y-60006247D02*
X161754286Y-59863390D01*
X161754286Y-59863390D02*
X161801905Y-59672914D01*
X161801905Y-59672914D02*
X161849524Y-59577676D01*
X161849524Y-59577676D02*
X161944762Y-59482438D01*
X161944762Y-59482438D02*
X162087619Y-59434819D01*
X162087619Y-59434819D02*
X162182857Y-59434819D01*
X162182857Y-59434819D02*
X162325714Y-59482438D01*
X162325714Y-59482438D02*
X162373333Y-59530057D01*
X163325714Y-60434819D02*
X162754286Y-60434819D01*
X163040000Y-60434819D02*
X163040000Y-59434819D01*
X163040000Y-59434819D02*
X162944762Y-59577676D01*
X162944762Y-59577676D02*
X162849524Y-59672914D01*
X162849524Y-59672914D02*
X162754286Y-59720533D01*
X170783333Y-79424819D02*
X170307143Y-79424819D01*
X170307143Y-79424819D02*
X170307143Y-78424819D01*
X171688095Y-79329580D02*
X171640476Y-79377200D01*
X171640476Y-79377200D02*
X171497619Y-79424819D01*
X171497619Y-79424819D02*
X171402381Y-79424819D01*
X171402381Y-79424819D02*
X171259524Y-79377200D01*
X171259524Y-79377200D02*
X171164286Y-79281961D01*
X171164286Y-79281961D02*
X171116667Y-79186723D01*
X171116667Y-79186723D02*
X171069048Y-78996247D01*
X171069048Y-78996247D02*
X171069048Y-78853390D01*
X171069048Y-78853390D02*
X171116667Y-78662914D01*
X171116667Y-78662914D02*
X171164286Y-78567676D01*
X171164286Y-78567676D02*
X171259524Y-78472438D01*
X171259524Y-78472438D02*
X171402381Y-78424819D01*
X171402381Y-78424819D02*
X171497619Y-78424819D01*
X171497619Y-78424819D02*
X171640476Y-78472438D01*
X171640476Y-78472438D02*
X171688095Y-78520057D01*
X172069048Y-78520057D02*
X172116667Y-78472438D01*
X172116667Y-78472438D02*
X172211905Y-78424819D01*
X172211905Y-78424819D02*
X172450000Y-78424819D01*
X172450000Y-78424819D02*
X172545238Y-78472438D01*
X172545238Y-78472438D02*
X172592857Y-78520057D01*
X172592857Y-78520057D02*
X172640476Y-78615295D01*
X172640476Y-78615295D02*
X172640476Y-78710533D01*
X172640476Y-78710533D02*
X172592857Y-78853390D01*
X172592857Y-78853390D02*
X172021429Y-79424819D01*
X172021429Y-79424819D02*
X172640476Y-79424819D01*
X166029819Y-94146666D02*
X165553628Y-94479999D01*
X166029819Y-94718094D02*
X165029819Y-94718094D01*
X165029819Y-94718094D02*
X165029819Y-94337142D01*
X165029819Y-94337142D02*
X165077438Y-94241904D01*
X165077438Y-94241904D02*
X165125057Y-94194285D01*
X165125057Y-94194285D02*
X165220295Y-94146666D01*
X165220295Y-94146666D02*
X165363152Y-94146666D01*
X165363152Y-94146666D02*
X165458390Y-94194285D01*
X165458390Y-94194285D02*
X165506009Y-94241904D01*
X165506009Y-94241904D02*
X165553628Y-94337142D01*
X165553628Y-94337142D02*
X165553628Y-94718094D01*
X166029819Y-93194285D02*
X166029819Y-93765713D01*
X166029819Y-93479999D02*
X165029819Y-93479999D01*
X165029819Y-93479999D02*
X165172676Y-93575237D01*
X165172676Y-93575237D02*
X165267914Y-93670475D01*
X165267914Y-93670475D02*
X165315533Y-93765713D01*
X158430946Y-44035637D02*
X158430946Y-44749922D01*
X158430946Y-44749922D02*
X158383327Y-44892779D01*
X158383327Y-44892779D02*
X158288089Y-44988018D01*
X158288089Y-44988018D02*
X158145232Y-45035637D01*
X158145232Y-45035637D02*
X158049994Y-45035637D01*
X158907137Y-45035637D02*
X158907137Y-44035637D01*
X158907137Y-44035637D02*
X159288089Y-44035637D01*
X159288089Y-44035637D02*
X159383327Y-44083256D01*
X159383327Y-44083256D02*
X159430946Y-44130875D01*
X159430946Y-44130875D02*
X159478565Y-44226113D01*
X159478565Y-44226113D02*
X159478565Y-44368970D01*
X159478565Y-44368970D02*
X159430946Y-44464208D01*
X159430946Y-44464208D02*
X159383327Y-44511827D01*
X159383327Y-44511827D02*
X159288089Y-44559446D01*
X159288089Y-44559446D02*
X158907137Y-44559446D01*
X160430946Y-45035637D02*
X159859518Y-45035637D01*
X160145232Y-45035637D02*
X160145232Y-44035637D01*
X160145232Y-44035637D02*
X160049994Y-44178494D01*
X160049994Y-44178494D02*
X159954756Y-44273732D01*
X159954756Y-44273732D02*
X159859518Y-44321351D01*
X95146905Y-81734819D02*
X95146905Y-80734819D01*
X95146905Y-80734819D02*
X95527857Y-80734819D01*
X95527857Y-80734819D02*
X95623095Y-80782438D01*
X95623095Y-80782438D02*
X95670714Y-80830057D01*
X95670714Y-80830057D02*
X95718333Y-80925295D01*
X95718333Y-80925295D02*
X95718333Y-81068152D01*
X95718333Y-81068152D02*
X95670714Y-81163390D01*
X95670714Y-81163390D02*
X95623095Y-81211009D01*
X95623095Y-81211009D02*
X95527857Y-81258628D01*
X95527857Y-81258628D02*
X95146905Y-81258628D01*
X96575476Y-80734819D02*
X96385000Y-80734819D01*
X96385000Y-80734819D02*
X96289762Y-80782438D01*
X96289762Y-80782438D02*
X96242143Y-80830057D01*
X96242143Y-80830057D02*
X96146905Y-80972914D01*
X96146905Y-80972914D02*
X96099286Y-81163390D01*
X96099286Y-81163390D02*
X96099286Y-81544342D01*
X96099286Y-81544342D02*
X96146905Y-81639580D01*
X96146905Y-81639580D02*
X96194524Y-81687200D01*
X96194524Y-81687200D02*
X96289762Y-81734819D01*
X96289762Y-81734819D02*
X96480238Y-81734819D01*
X96480238Y-81734819D02*
X96575476Y-81687200D01*
X96575476Y-81687200D02*
X96623095Y-81639580D01*
X96623095Y-81639580D02*
X96670714Y-81544342D01*
X96670714Y-81544342D02*
X96670714Y-81306247D01*
X96670714Y-81306247D02*
X96623095Y-81211009D01*
X96623095Y-81211009D02*
X96575476Y-81163390D01*
X96575476Y-81163390D02*
X96480238Y-81115771D01*
X96480238Y-81115771D02*
X96289762Y-81115771D01*
X96289762Y-81115771D02*
X96194524Y-81163390D01*
X96194524Y-81163390D02*
X96146905Y-81211009D01*
X96146905Y-81211009D02*
X96099286Y-81306247D01*
X95146905Y-103324819D02*
X95146905Y-102324819D01*
X95146905Y-102324819D02*
X95527857Y-102324819D01*
X95527857Y-102324819D02*
X95623095Y-102372438D01*
X95623095Y-102372438D02*
X95670714Y-102420057D01*
X95670714Y-102420057D02*
X95718333Y-102515295D01*
X95718333Y-102515295D02*
X95718333Y-102658152D01*
X95718333Y-102658152D02*
X95670714Y-102753390D01*
X95670714Y-102753390D02*
X95623095Y-102801009D01*
X95623095Y-102801009D02*
X95527857Y-102848628D01*
X95527857Y-102848628D02*
X95146905Y-102848628D01*
X96623095Y-102324819D02*
X96146905Y-102324819D01*
X96146905Y-102324819D02*
X96099286Y-102801009D01*
X96099286Y-102801009D02*
X96146905Y-102753390D01*
X96146905Y-102753390D02*
X96242143Y-102705771D01*
X96242143Y-102705771D02*
X96480238Y-102705771D01*
X96480238Y-102705771D02*
X96575476Y-102753390D01*
X96575476Y-102753390D02*
X96623095Y-102801009D01*
X96623095Y-102801009D02*
X96670714Y-102896247D01*
X96670714Y-102896247D02*
X96670714Y-103134342D01*
X96670714Y-103134342D02*
X96623095Y-103229580D01*
X96623095Y-103229580D02*
X96575476Y-103277200D01*
X96575476Y-103277200D02*
X96480238Y-103324819D01*
X96480238Y-103324819D02*
X96242143Y-103324819D01*
X96242143Y-103324819D02*
X96146905Y-103277200D01*
X96146905Y-103277200D02*
X96099286Y-103229580D01*
X118459524Y-65971009D02*
X118792857Y-65971009D01*
X118935714Y-66494819D02*
X118459524Y-66494819D01*
X118459524Y-66494819D02*
X118459524Y-65494819D01*
X118459524Y-65494819D02*
X118935714Y-65494819D01*
X119269048Y-65494819D02*
X119935714Y-65494819D01*
X119935714Y-65494819D02*
X119507143Y-66494819D01*
X108640714Y-48714819D02*
X108640714Y-47714819D01*
X108640714Y-47714819D02*
X109021666Y-47714819D01*
X109021666Y-47714819D02*
X109116904Y-47762438D01*
X109116904Y-47762438D02*
X109164523Y-47810057D01*
X109164523Y-47810057D02*
X109212142Y-47905295D01*
X109212142Y-47905295D02*
X109212142Y-48048152D01*
X109212142Y-48048152D02*
X109164523Y-48143390D01*
X109164523Y-48143390D02*
X109116904Y-48191009D01*
X109116904Y-48191009D02*
X109021666Y-48238628D01*
X109021666Y-48238628D02*
X108640714Y-48238628D01*
X110164523Y-48714819D02*
X109593095Y-48714819D01*
X109878809Y-48714819D02*
X109878809Y-47714819D01*
X109878809Y-47714819D02*
X109783571Y-47857676D01*
X109783571Y-47857676D02*
X109688333Y-47952914D01*
X109688333Y-47952914D02*
X109593095Y-48000533D01*
X110545476Y-47810057D02*
X110593095Y-47762438D01*
X110593095Y-47762438D02*
X110688333Y-47714819D01*
X110688333Y-47714819D02*
X110926428Y-47714819D01*
X110926428Y-47714819D02*
X111021666Y-47762438D01*
X111021666Y-47762438D02*
X111069285Y-47810057D01*
X111069285Y-47810057D02*
X111116904Y-47905295D01*
X111116904Y-47905295D02*
X111116904Y-48000533D01*
X111116904Y-48000533D02*
X111069285Y-48143390D01*
X111069285Y-48143390D02*
X110497857Y-48714819D01*
X110497857Y-48714819D02*
X111116904Y-48714819D01*
X91894819Y-134595951D02*
X90894819Y-134595951D01*
X90894819Y-134595951D02*
X90894819Y-134214999D01*
X90894819Y-134214999D02*
X90942438Y-134119761D01*
X90942438Y-134119761D02*
X90990057Y-134072142D01*
X90990057Y-134072142D02*
X91085295Y-134024523D01*
X91085295Y-134024523D02*
X91228152Y-134024523D01*
X91228152Y-134024523D02*
X91323390Y-134072142D01*
X91323390Y-134072142D02*
X91371009Y-134119761D01*
X91371009Y-134119761D02*
X91418628Y-134214999D01*
X91418628Y-134214999D02*
X91418628Y-134595951D01*
X91990057Y-133834047D02*
X91990057Y-133072142D01*
X91894819Y-132834046D02*
X90894819Y-132834046D01*
X91894819Y-132357856D02*
X90894819Y-132357856D01*
X90894819Y-132357856D02*
X91894819Y-131786428D01*
X91894819Y-131786428D02*
X90894819Y-131786428D01*
X91894819Y-130786428D02*
X91894819Y-131357856D01*
X91894819Y-131072142D02*
X90894819Y-131072142D01*
X90894819Y-131072142D02*
X91037676Y-131167380D01*
X91037676Y-131167380D02*
X91132914Y-131262618D01*
X91132914Y-131262618D02*
X91180533Y-131357856D01*
X157376905Y-91894819D02*
X157376905Y-90894819D01*
X157376905Y-90894819D02*
X157615000Y-90894819D01*
X157615000Y-90894819D02*
X157757857Y-90942438D01*
X157757857Y-90942438D02*
X157853095Y-91037676D01*
X157853095Y-91037676D02*
X157900714Y-91132914D01*
X157900714Y-91132914D02*
X157948333Y-91323390D01*
X157948333Y-91323390D02*
X157948333Y-91466247D01*
X157948333Y-91466247D02*
X157900714Y-91656723D01*
X157900714Y-91656723D02*
X157853095Y-91751961D01*
X157853095Y-91751961D02*
X157757857Y-91847200D01*
X157757857Y-91847200D02*
X157615000Y-91894819D01*
X157615000Y-91894819D02*
X157376905Y-91894819D01*
X158900714Y-91894819D02*
X158329286Y-91894819D01*
X158615000Y-91894819D02*
X158615000Y-90894819D01*
X158615000Y-90894819D02*
X158519762Y-91037676D01*
X158519762Y-91037676D02*
X158424524Y-91132914D01*
X158424524Y-91132914D02*
X158329286Y-91180533D01*
X109751905Y-114119819D02*
X109751905Y-113119819D01*
X109751905Y-113119819D02*
X110132857Y-113119819D01*
X110132857Y-113119819D02*
X110228095Y-113167438D01*
X110228095Y-113167438D02*
X110275714Y-113215057D01*
X110275714Y-113215057D02*
X110323333Y-113310295D01*
X110323333Y-113310295D02*
X110323333Y-113453152D01*
X110323333Y-113453152D02*
X110275714Y-113548390D01*
X110275714Y-113548390D02*
X110228095Y-113596009D01*
X110228095Y-113596009D02*
X110132857Y-113643628D01*
X110132857Y-113643628D02*
X109751905Y-113643628D01*
X110799524Y-114119819D02*
X110990000Y-114119819D01*
X110990000Y-114119819D02*
X111085238Y-114072200D01*
X111085238Y-114072200D02*
X111132857Y-114024580D01*
X111132857Y-114024580D02*
X111228095Y-113881723D01*
X111228095Y-113881723D02*
X111275714Y-113691247D01*
X111275714Y-113691247D02*
X111275714Y-113310295D01*
X111275714Y-113310295D02*
X111228095Y-113215057D01*
X111228095Y-113215057D02*
X111180476Y-113167438D01*
X111180476Y-113167438D02*
X111085238Y-113119819D01*
X111085238Y-113119819D02*
X110894762Y-113119819D01*
X110894762Y-113119819D02*
X110799524Y-113167438D01*
X110799524Y-113167438D02*
X110751905Y-113215057D01*
X110751905Y-113215057D02*
X110704286Y-113310295D01*
X110704286Y-113310295D02*
X110704286Y-113548390D01*
X110704286Y-113548390D02*
X110751905Y-113643628D01*
X110751905Y-113643628D02*
X110799524Y-113691247D01*
X110799524Y-113691247D02*
X110894762Y-113738866D01*
X110894762Y-113738866D02*
X111085238Y-113738866D01*
X111085238Y-113738866D02*
X111180476Y-113691247D01*
X111180476Y-113691247D02*
X111228095Y-113643628D01*
X111228095Y-113643628D02*
X111275714Y-113548390D01*
X118459524Y-43111009D02*
X118792857Y-43111009D01*
X118935714Y-43634819D02*
X118459524Y-43634819D01*
X118459524Y-43634819D02*
X118459524Y-42634819D01*
X118459524Y-42634819D02*
X118935714Y-42634819D01*
X119888095Y-43634819D02*
X119316667Y-43634819D01*
X119602381Y-43634819D02*
X119602381Y-42634819D01*
X119602381Y-42634819D02*
X119507143Y-42777676D01*
X119507143Y-42777676D02*
X119411905Y-42872914D01*
X119411905Y-42872914D02*
X119316667Y-42920533D01*
X95146905Y-60144819D02*
X95146905Y-59144819D01*
X95146905Y-59144819D02*
X95527857Y-59144819D01*
X95527857Y-59144819D02*
X95623095Y-59192438D01*
X95623095Y-59192438D02*
X95670714Y-59240057D01*
X95670714Y-59240057D02*
X95718333Y-59335295D01*
X95718333Y-59335295D02*
X95718333Y-59478152D01*
X95718333Y-59478152D02*
X95670714Y-59573390D01*
X95670714Y-59573390D02*
X95623095Y-59621009D01*
X95623095Y-59621009D02*
X95527857Y-59668628D01*
X95527857Y-59668628D02*
X95146905Y-59668628D01*
X96051667Y-59144819D02*
X96718333Y-59144819D01*
X96718333Y-59144819D02*
X96289762Y-60144819D01*
X163643333Y-45099580D02*
X163595714Y-45147200D01*
X163595714Y-45147200D02*
X163452857Y-45194819D01*
X163452857Y-45194819D02*
X163357619Y-45194819D01*
X163357619Y-45194819D02*
X163214762Y-45147200D01*
X163214762Y-45147200D02*
X163119524Y-45051961D01*
X163119524Y-45051961D02*
X163071905Y-44956723D01*
X163071905Y-44956723D02*
X163024286Y-44766247D01*
X163024286Y-44766247D02*
X163024286Y-44623390D01*
X163024286Y-44623390D02*
X163071905Y-44432914D01*
X163071905Y-44432914D02*
X163119524Y-44337676D01*
X163119524Y-44337676D02*
X163214762Y-44242438D01*
X163214762Y-44242438D02*
X163357619Y-44194819D01*
X163357619Y-44194819D02*
X163452857Y-44194819D01*
X163452857Y-44194819D02*
X163595714Y-44242438D01*
X163595714Y-44242438D02*
X163643333Y-44290057D01*
X164024286Y-44290057D02*
X164071905Y-44242438D01*
X164071905Y-44242438D02*
X164167143Y-44194819D01*
X164167143Y-44194819D02*
X164405238Y-44194819D01*
X164405238Y-44194819D02*
X164500476Y-44242438D01*
X164500476Y-44242438D02*
X164548095Y-44290057D01*
X164548095Y-44290057D02*
X164595714Y-44385295D01*
X164595714Y-44385295D02*
X164595714Y-44480533D01*
X164595714Y-44480533D02*
X164548095Y-44623390D01*
X164548095Y-44623390D02*
X163976667Y-45194819D01*
X163976667Y-45194819D02*
X164595714Y-45194819D01*
X174926666Y-100014819D02*
X174926666Y-100729104D01*
X174926666Y-100729104D02*
X174879047Y-100871961D01*
X174879047Y-100871961D02*
X174783809Y-100967200D01*
X174783809Y-100967200D02*
X174640952Y-101014819D01*
X174640952Y-101014819D02*
X174545714Y-101014819D01*
X175926666Y-101014819D02*
X175355238Y-101014819D01*
X175640952Y-101014819D02*
X175640952Y-100014819D01*
X175640952Y-100014819D02*
X175545714Y-100157676D01*
X175545714Y-100157676D02*
X175450476Y-100252914D01*
X175450476Y-100252914D02*
X175355238Y-100300533D01*
X81176905Y-113484819D02*
X81176905Y-112484819D01*
X81176905Y-112484819D02*
X81557857Y-112484819D01*
X81557857Y-112484819D02*
X81653095Y-112532438D01*
X81653095Y-112532438D02*
X81700714Y-112580057D01*
X81700714Y-112580057D02*
X81748333Y-112675295D01*
X81748333Y-112675295D02*
X81748333Y-112818152D01*
X81748333Y-112818152D02*
X81700714Y-112913390D01*
X81700714Y-112913390D02*
X81653095Y-112961009D01*
X81653095Y-112961009D02*
X81557857Y-113008628D01*
X81557857Y-113008628D02*
X81176905Y-113008628D01*
X82700714Y-113484819D02*
X82129286Y-113484819D01*
X82415000Y-113484819D02*
X82415000Y-112484819D01*
X82415000Y-112484819D02*
X82319762Y-112627676D01*
X82319762Y-112627676D02*
X82224524Y-112722914D01*
X82224524Y-112722914D02*
X82129286Y-112770533D01*
X118459524Y-50731009D02*
X118792857Y-50731009D01*
X118935714Y-51254819D02*
X118459524Y-51254819D01*
X118459524Y-51254819D02*
X118459524Y-50254819D01*
X118459524Y-50254819D02*
X118935714Y-50254819D01*
X119269048Y-50254819D02*
X119888095Y-50254819D01*
X119888095Y-50254819D02*
X119554762Y-50635771D01*
X119554762Y-50635771D02*
X119697619Y-50635771D01*
X119697619Y-50635771D02*
X119792857Y-50683390D01*
X119792857Y-50683390D02*
X119840476Y-50731009D01*
X119840476Y-50731009D02*
X119888095Y-50826247D01*
X119888095Y-50826247D02*
X119888095Y-51064342D01*
X119888095Y-51064342D02*
X119840476Y-51159580D01*
X119840476Y-51159580D02*
X119792857Y-51207200D01*
X119792857Y-51207200D02*
X119697619Y-51254819D01*
X119697619Y-51254819D02*
X119411905Y-51254819D01*
X119411905Y-51254819D02*
X119316667Y-51207200D01*
X119316667Y-51207200D02*
X119269048Y-51159580D01*
X118459524Y-69781009D02*
X118792857Y-69781009D01*
X118935714Y-70304819D02*
X118459524Y-70304819D01*
X118459524Y-70304819D02*
X118459524Y-69304819D01*
X118459524Y-69304819D02*
X118935714Y-69304819D01*
X119507143Y-69733390D02*
X119411905Y-69685771D01*
X119411905Y-69685771D02*
X119364286Y-69638152D01*
X119364286Y-69638152D02*
X119316667Y-69542914D01*
X119316667Y-69542914D02*
X119316667Y-69495295D01*
X119316667Y-69495295D02*
X119364286Y-69400057D01*
X119364286Y-69400057D02*
X119411905Y-69352438D01*
X119411905Y-69352438D02*
X119507143Y-69304819D01*
X119507143Y-69304819D02*
X119697619Y-69304819D01*
X119697619Y-69304819D02*
X119792857Y-69352438D01*
X119792857Y-69352438D02*
X119840476Y-69400057D01*
X119840476Y-69400057D02*
X119888095Y-69495295D01*
X119888095Y-69495295D02*
X119888095Y-69542914D01*
X119888095Y-69542914D02*
X119840476Y-69638152D01*
X119840476Y-69638152D02*
X119792857Y-69685771D01*
X119792857Y-69685771D02*
X119697619Y-69733390D01*
X119697619Y-69733390D02*
X119507143Y-69733390D01*
X119507143Y-69733390D02*
X119411905Y-69781009D01*
X119411905Y-69781009D02*
X119364286Y-69828628D01*
X119364286Y-69828628D02*
X119316667Y-69923866D01*
X119316667Y-69923866D02*
X119316667Y-70114342D01*
X119316667Y-70114342D02*
X119364286Y-70209580D01*
X119364286Y-70209580D02*
X119411905Y-70257200D01*
X119411905Y-70257200D02*
X119507143Y-70304819D01*
X119507143Y-70304819D02*
X119697619Y-70304819D01*
X119697619Y-70304819D02*
X119792857Y-70257200D01*
X119792857Y-70257200D02*
X119840476Y-70209580D01*
X119840476Y-70209580D02*
X119888095Y-70114342D01*
X119888095Y-70114342D02*
X119888095Y-69923866D01*
X119888095Y-69923866D02*
X119840476Y-69828628D01*
X119840476Y-69828628D02*
X119792857Y-69781009D01*
X119792857Y-69781009D02*
X119697619Y-69733390D01*
X80541905Y-70304819D02*
X80541905Y-69304819D01*
X80541905Y-69304819D02*
X80922857Y-69304819D01*
X80922857Y-69304819D02*
X81018095Y-69352438D01*
X81018095Y-69352438D02*
X81065714Y-69400057D01*
X81065714Y-69400057D02*
X81113333Y-69495295D01*
X81113333Y-69495295D02*
X81113333Y-69638152D01*
X81113333Y-69638152D02*
X81065714Y-69733390D01*
X81065714Y-69733390D02*
X81018095Y-69781009D01*
X81018095Y-69781009D02*
X80922857Y-69828628D01*
X80922857Y-69828628D02*
X80541905Y-69828628D01*
X81446667Y-69304819D02*
X82065714Y-69304819D01*
X82065714Y-69304819D02*
X81732381Y-69685771D01*
X81732381Y-69685771D02*
X81875238Y-69685771D01*
X81875238Y-69685771D02*
X81970476Y-69733390D01*
X81970476Y-69733390D02*
X82018095Y-69781009D01*
X82018095Y-69781009D02*
X82065714Y-69876247D01*
X82065714Y-69876247D02*
X82065714Y-70114342D01*
X82065714Y-70114342D02*
X82018095Y-70209580D01*
X82018095Y-70209580D02*
X81970476Y-70257200D01*
X81970476Y-70257200D02*
X81875238Y-70304819D01*
X81875238Y-70304819D02*
X81589524Y-70304819D01*
X81589524Y-70304819D02*
X81494286Y-70257200D01*
X81494286Y-70257200D02*
X81446667Y-70209580D01*
X157376905Y-83004819D02*
X157376905Y-82004819D01*
X157376905Y-82004819D02*
X157615000Y-82004819D01*
X157615000Y-82004819D02*
X157757857Y-82052438D01*
X157757857Y-82052438D02*
X157853095Y-82147676D01*
X157853095Y-82147676D02*
X157900714Y-82242914D01*
X157900714Y-82242914D02*
X157948333Y-82433390D01*
X157948333Y-82433390D02*
X157948333Y-82576247D01*
X157948333Y-82576247D02*
X157900714Y-82766723D01*
X157900714Y-82766723D02*
X157853095Y-82861961D01*
X157853095Y-82861961D02*
X157757857Y-82957200D01*
X157757857Y-82957200D02*
X157615000Y-83004819D01*
X157615000Y-83004819D02*
X157376905Y-83004819D01*
X158329286Y-82100057D02*
X158376905Y-82052438D01*
X158376905Y-82052438D02*
X158472143Y-82004819D01*
X158472143Y-82004819D02*
X158710238Y-82004819D01*
X158710238Y-82004819D02*
X158805476Y-82052438D01*
X158805476Y-82052438D02*
X158853095Y-82100057D01*
X158853095Y-82100057D02*
X158900714Y-82195295D01*
X158900714Y-82195295D02*
X158900714Y-82290533D01*
X158900714Y-82290533D02*
X158853095Y-82433390D01*
X158853095Y-82433390D02*
X158281667Y-83004819D01*
X158281667Y-83004819D02*
X158900714Y-83004819D01*
X117578333Y-77401009D02*
X117911666Y-77401009D01*
X118054523Y-77924819D02*
X117578333Y-77924819D01*
X117578333Y-77924819D02*
X117578333Y-76924819D01*
X117578333Y-76924819D02*
X118054523Y-76924819D01*
X119006904Y-77924819D02*
X118435476Y-77924819D01*
X118721190Y-77924819D02*
X118721190Y-76924819D01*
X118721190Y-76924819D02*
X118625952Y-77067676D01*
X118625952Y-77067676D02*
X118530714Y-77162914D01*
X118530714Y-77162914D02*
X118435476Y-77210533D01*
X119625952Y-76924819D02*
X119721190Y-76924819D01*
X119721190Y-76924819D02*
X119816428Y-76972438D01*
X119816428Y-76972438D02*
X119864047Y-77020057D01*
X119864047Y-77020057D02*
X119911666Y-77115295D01*
X119911666Y-77115295D02*
X119959285Y-77305771D01*
X119959285Y-77305771D02*
X119959285Y-77543866D01*
X119959285Y-77543866D02*
X119911666Y-77734342D01*
X119911666Y-77734342D02*
X119864047Y-77829580D01*
X119864047Y-77829580D02*
X119816428Y-77877200D01*
X119816428Y-77877200D02*
X119721190Y-77924819D01*
X119721190Y-77924819D02*
X119625952Y-77924819D01*
X119625952Y-77924819D02*
X119530714Y-77877200D01*
X119530714Y-77877200D02*
X119483095Y-77829580D01*
X119483095Y-77829580D02*
X119435476Y-77734342D01*
X119435476Y-77734342D02*
X119387857Y-77543866D01*
X119387857Y-77543866D02*
X119387857Y-77305771D01*
X119387857Y-77305771D02*
X119435476Y-77115295D01*
X119435476Y-77115295D02*
X119483095Y-77020057D01*
X119483095Y-77020057D02*
X119530714Y-76972438D01*
X119530714Y-76972438D02*
X119625952Y-76924819D01*
X121739819Y-134595951D02*
X120739819Y-134595951D01*
X120739819Y-134595951D02*
X120739819Y-134214999D01*
X120739819Y-134214999D02*
X120787438Y-134119761D01*
X120787438Y-134119761D02*
X120835057Y-134072142D01*
X120835057Y-134072142D02*
X120930295Y-134024523D01*
X120930295Y-134024523D02*
X121073152Y-134024523D01*
X121073152Y-134024523D02*
X121168390Y-134072142D01*
X121168390Y-134072142D02*
X121216009Y-134119761D01*
X121216009Y-134119761D02*
X121263628Y-134214999D01*
X121263628Y-134214999D02*
X121263628Y-134595951D01*
X121835057Y-133834047D02*
X121835057Y-133072142D01*
X121739819Y-132834046D02*
X120739819Y-132834046D01*
X121739819Y-132357856D02*
X120739819Y-132357856D01*
X120739819Y-132357856D02*
X121739819Y-131786428D01*
X121739819Y-131786428D02*
X120739819Y-131786428D01*
X120739819Y-131405475D02*
X120739819Y-130786428D01*
X120739819Y-130786428D02*
X121120771Y-131119761D01*
X121120771Y-131119761D02*
X121120771Y-130976904D01*
X121120771Y-130976904D02*
X121168390Y-130881666D01*
X121168390Y-130881666D02*
X121216009Y-130834047D01*
X121216009Y-130834047D02*
X121311247Y-130786428D01*
X121311247Y-130786428D02*
X121549342Y-130786428D01*
X121549342Y-130786428D02*
X121644580Y-130834047D01*
X121644580Y-130834047D02*
X121692200Y-130881666D01*
X121692200Y-130881666D02*
X121739819Y-130976904D01*
X121739819Y-130976904D02*
X121739819Y-131262618D01*
X121739819Y-131262618D02*
X121692200Y-131357856D01*
X121692200Y-131357856D02*
X121644580Y-131405475D01*
X117578333Y-81211009D02*
X117911666Y-81211009D01*
X118054523Y-81734819D02*
X117578333Y-81734819D01*
X117578333Y-81734819D02*
X117578333Y-80734819D01*
X117578333Y-80734819D02*
X118054523Y-80734819D01*
X119006904Y-81734819D02*
X118435476Y-81734819D01*
X118721190Y-81734819D02*
X118721190Y-80734819D01*
X118721190Y-80734819D02*
X118625952Y-80877676D01*
X118625952Y-80877676D02*
X118530714Y-80972914D01*
X118530714Y-80972914D02*
X118435476Y-81020533D01*
X119959285Y-81734819D02*
X119387857Y-81734819D01*
X119673571Y-81734819D02*
X119673571Y-80734819D01*
X119673571Y-80734819D02*
X119578333Y-80877676D01*
X119578333Y-80877676D02*
X119483095Y-80972914D01*
X119483095Y-80972914D02*
X119387857Y-81020533D01*
X166029819Y-85256666D02*
X165553628Y-85589999D01*
X166029819Y-85828094D02*
X165029819Y-85828094D01*
X165029819Y-85828094D02*
X165029819Y-85447142D01*
X165029819Y-85447142D02*
X165077438Y-85351904D01*
X165077438Y-85351904D02*
X165125057Y-85304285D01*
X165125057Y-85304285D02*
X165220295Y-85256666D01*
X165220295Y-85256666D02*
X165363152Y-85256666D01*
X165363152Y-85256666D02*
X165458390Y-85304285D01*
X165458390Y-85304285D02*
X165506009Y-85351904D01*
X165506009Y-85351904D02*
X165553628Y-85447142D01*
X165553628Y-85447142D02*
X165553628Y-85828094D01*
X165125057Y-84875713D02*
X165077438Y-84828094D01*
X165077438Y-84828094D02*
X165029819Y-84732856D01*
X165029819Y-84732856D02*
X165029819Y-84494761D01*
X165029819Y-84494761D02*
X165077438Y-84399523D01*
X165077438Y-84399523D02*
X165125057Y-84351904D01*
X165125057Y-84351904D02*
X165220295Y-84304285D01*
X165220295Y-84304285D02*
X165315533Y-84304285D01*
X165315533Y-84304285D02*
X165458390Y-84351904D01*
X165458390Y-84351904D02*
X166029819Y-84923332D01*
X166029819Y-84923332D02*
X166029819Y-84304285D01*
X175280476Y-52124819D02*
X175280476Y-52839104D01*
X175280476Y-52839104D02*
X175232857Y-52981961D01*
X175232857Y-52981961D02*
X175137619Y-53077200D01*
X175137619Y-53077200D02*
X174994762Y-53124819D01*
X174994762Y-53124819D02*
X174899524Y-53124819D01*
X176280476Y-53124819D02*
X175709048Y-53124819D01*
X175994762Y-53124819D02*
X175994762Y-52124819D01*
X175994762Y-52124819D02*
X175899524Y-52267676D01*
X175899524Y-52267676D02*
X175804286Y-52362914D01*
X175804286Y-52362914D02*
X175709048Y-52410533D01*
X176851905Y-52553390D02*
X176756667Y-52505771D01*
X176756667Y-52505771D02*
X176709048Y-52458152D01*
X176709048Y-52458152D02*
X176661429Y-52362914D01*
X176661429Y-52362914D02*
X176661429Y-52315295D01*
X176661429Y-52315295D02*
X176709048Y-52220057D01*
X176709048Y-52220057D02*
X176756667Y-52172438D01*
X176756667Y-52172438D02*
X176851905Y-52124819D01*
X176851905Y-52124819D02*
X177042381Y-52124819D01*
X177042381Y-52124819D02*
X177137619Y-52172438D01*
X177137619Y-52172438D02*
X177185238Y-52220057D01*
X177185238Y-52220057D02*
X177232857Y-52315295D01*
X177232857Y-52315295D02*
X177232857Y-52362914D01*
X177232857Y-52362914D02*
X177185238Y-52458152D01*
X177185238Y-52458152D02*
X177137619Y-52505771D01*
X177137619Y-52505771D02*
X177042381Y-52553390D01*
X177042381Y-52553390D02*
X176851905Y-52553390D01*
X176851905Y-52553390D02*
X176756667Y-52601009D01*
X176756667Y-52601009D02*
X176709048Y-52648628D01*
X176709048Y-52648628D02*
X176661429Y-52743866D01*
X176661429Y-52743866D02*
X176661429Y-52934342D01*
X176661429Y-52934342D02*
X176709048Y-53029580D01*
X176709048Y-53029580D02*
X176756667Y-53077200D01*
X176756667Y-53077200D02*
X176851905Y-53124819D01*
X176851905Y-53124819D02*
X177042381Y-53124819D01*
X177042381Y-53124819D02*
X177137619Y-53077200D01*
X177137619Y-53077200D02*
X177185238Y-53029580D01*
X177185238Y-53029580D02*
X177232857Y-52934342D01*
X177232857Y-52934342D02*
X177232857Y-52743866D01*
X177232857Y-52743866D02*
X177185238Y-52648628D01*
X177185238Y-52648628D02*
X177137619Y-52601009D01*
X177137619Y-52601009D02*
X177042381Y-52553390D01*
X118474524Y-46921009D02*
X118807857Y-46921009D01*
X118950714Y-47444819D02*
X118474524Y-47444819D01*
X118474524Y-47444819D02*
X118474524Y-46444819D01*
X118474524Y-46444819D02*
X118950714Y-46444819D01*
X119331667Y-46540057D02*
X119379286Y-46492438D01*
X119379286Y-46492438D02*
X119474524Y-46444819D01*
X119474524Y-46444819D02*
X119712619Y-46444819D01*
X119712619Y-46444819D02*
X119807857Y-46492438D01*
X119807857Y-46492438D02*
X119855476Y-46540057D01*
X119855476Y-46540057D02*
X119903095Y-46635295D01*
X119903095Y-46635295D02*
X119903095Y-46730533D01*
X119903095Y-46730533D02*
X119855476Y-46873390D01*
X119855476Y-46873390D02*
X119284048Y-47444819D01*
X119284048Y-47444819D02*
X119903095Y-47444819D01*
X157744819Y-55371904D02*
X158554342Y-55371904D01*
X158554342Y-55371904D02*
X158649580Y-55324285D01*
X158649580Y-55324285D02*
X158697200Y-55276666D01*
X158697200Y-55276666D02*
X158744819Y-55181428D01*
X158744819Y-55181428D02*
X158744819Y-54990952D01*
X158744819Y-54990952D02*
X158697200Y-54895714D01*
X158697200Y-54895714D02*
X158649580Y-54848095D01*
X158649580Y-54848095D02*
X158554342Y-54800476D01*
X158554342Y-54800476D02*
X157744819Y-54800476D01*
X157840057Y-54371904D02*
X157792438Y-54324285D01*
X157792438Y-54324285D02*
X157744819Y-54229047D01*
X157744819Y-54229047D02*
X157744819Y-53990952D01*
X157744819Y-53990952D02*
X157792438Y-53895714D01*
X157792438Y-53895714D02*
X157840057Y-53848095D01*
X157840057Y-53848095D02*
X157935295Y-53800476D01*
X157935295Y-53800476D02*
X158030533Y-53800476D01*
X158030533Y-53800476D02*
X158173390Y-53848095D01*
X158173390Y-53848095D02*
X158744819Y-54419523D01*
X158744819Y-54419523D02*
X158744819Y-53800476D01*
X107134819Y-134595951D02*
X106134819Y-134595951D01*
X106134819Y-134595951D02*
X106134819Y-134214999D01*
X106134819Y-134214999D02*
X106182438Y-134119761D01*
X106182438Y-134119761D02*
X106230057Y-134072142D01*
X106230057Y-134072142D02*
X106325295Y-134024523D01*
X106325295Y-134024523D02*
X106468152Y-134024523D01*
X106468152Y-134024523D02*
X106563390Y-134072142D01*
X106563390Y-134072142D02*
X106611009Y-134119761D01*
X106611009Y-134119761D02*
X106658628Y-134214999D01*
X106658628Y-134214999D02*
X106658628Y-134595951D01*
X107230057Y-133834047D02*
X107230057Y-133072142D01*
X107134819Y-132834046D02*
X106134819Y-132834046D01*
X107134819Y-132357856D02*
X106134819Y-132357856D01*
X106134819Y-132357856D02*
X107134819Y-131786428D01*
X107134819Y-131786428D02*
X106134819Y-131786428D01*
X106230057Y-131357856D02*
X106182438Y-131310237D01*
X106182438Y-131310237D02*
X106134819Y-131214999D01*
X106134819Y-131214999D02*
X106134819Y-130976904D01*
X106134819Y-130976904D02*
X106182438Y-130881666D01*
X106182438Y-130881666D02*
X106230057Y-130834047D01*
X106230057Y-130834047D02*
X106325295Y-130786428D01*
X106325295Y-130786428D02*
X106420533Y-130786428D01*
X106420533Y-130786428D02*
X106563390Y-130834047D01*
X106563390Y-130834047D02*
X107134819Y-131405475D01*
X107134819Y-131405475D02*
X107134819Y-130786428D01*
X118459524Y-54541009D02*
X118792857Y-54541009D01*
X118935714Y-55064819D02*
X118459524Y-55064819D01*
X118459524Y-55064819D02*
X118459524Y-54064819D01*
X118459524Y-54064819D02*
X118935714Y-54064819D01*
X119792857Y-54398152D02*
X119792857Y-55064819D01*
X119554762Y-54017200D02*
X119316667Y-54731485D01*
X119316667Y-54731485D02*
X119935714Y-54731485D01*
X118459524Y-62161009D02*
X118792857Y-62161009D01*
X118935714Y-62684819D02*
X118459524Y-62684819D01*
X118459524Y-62684819D02*
X118459524Y-61684819D01*
X118459524Y-61684819D02*
X118935714Y-61684819D01*
X119792857Y-61684819D02*
X119602381Y-61684819D01*
X119602381Y-61684819D02*
X119507143Y-61732438D01*
X119507143Y-61732438D02*
X119459524Y-61780057D01*
X119459524Y-61780057D02*
X119364286Y-61922914D01*
X119364286Y-61922914D02*
X119316667Y-62113390D01*
X119316667Y-62113390D02*
X119316667Y-62494342D01*
X119316667Y-62494342D02*
X119364286Y-62589580D01*
X119364286Y-62589580D02*
X119411905Y-62637200D01*
X119411905Y-62637200D02*
X119507143Y-62684819D01*
X119507143Y-62684819D02*
X119697619Y-62684819D01*
X119697619Y-62684819D02*
X119792857Y-62637200D01*
X119792857Y-62637200D02*
X119840476Y-62589580D01*
X119840476Y-62589580D02*
X119888095Y-62494342D01*
X119888095Y-62494342D02*
X119888095Y-62256247D01*
X119888095Y-62256247D02*
X119840476Y-62161009D01*
X119840476Y-62161009D02*
X119792857Y-62113390D01*
X119792857Y-62113390D02*
X119697619Y-62065771D01*
X119697619Y-62065771D02*
X119507143Y-62065771D01*
X119507143Y-62065771D02*
X119411905Y-62113390D01*
X119411905Y-62113390D02*
X119364286Y-62161009D01*
X119364286Y-62161009D02*
X119316667Y-62256247D01*
X80541905Y-48714819D02*
X80541905Y-47714819D01*
X80541905Y-47714819D02*
X80922857Y-47714819D01*
X80922857Y-47714819D02*
X81018095Y-47762438D01*
X81018095Y-47762438D02*
X81065714Y-47810057D01*
X81065714Y-47810057D02*
X81113333Y-47905295D01*
X81113333Y-47905295D02*
X81113333Y-48048152D01*
X81113333Y-48048152D02*
X81065714Y-48143390D01*
X81065714Y-48143390D02*
X81018095Y-48191009D01*
X81018095Y-48191009D02*
X80922857Y-48238628D01*
X80922857Y-48238628D02*
X80541905Y-48238628D01*
X81970476Y-48048152D02*
X81970476Y-48714819D01*
X81732381Y-47667200D02*
X81494286Y-48381485D01*
X81494286Y-48381485D02*
X82113333Y-48381485D01*
X95146905Y-38554819D02*
X95146905Y-37554819D01*
X95146905Y-37554819D02*
X95527857Y-37554819D01*
X95527857Y-37554819D02*
X95623095Y-37602438D01*
X95623095Y-37602438D02*
X95670714Y-37650057D01*
X95670714Y-37650057D02*
X95718333Y-37745295D01*
X95718333Y-37745295D02*
X95718333Y-37888152D01*
X95718333Y-37888152D02*
X95670714Y-37983390D01*
X95670714Y-37983390D02*
X95623095Y-38031009D01*
X95623095Y-38031009D02*
X95527857Y-38078628D01*
X95527857Y-38078628D02*
X95146905Y-38078628D01*
X96289762Y-37983390D02*
X96194524Y-37935771D01*
X96194524Y-37935771D02*
X96146905Y-37888152D01*
X96146905Y-37888152D02*
X96099286Y-37792914D01*
X96099286Y-37792914D02*
X96099286Y-37745295D01*
X96099286Y-37745295D02*
X96146905Y-37650057D01*
X96146905Y-37650057D02*
X96194524Y-37602438D01*
X96194524Y-37602438D02*
X96289762Y-37554819D01*
X96289762Y-37554819D02*
X96480238Y-37554819D01*
X96480238Y-37554819D02*
X96575476Y-37602438D01*
X96575476Y-37602438D02*
X96623095Y-37650057D01*
X96623095Y-37650057D02*
X96670714Y-37745295D01*
X96670714Y-37745295D02*
X96670714Y-37792914D01*
X96670714Y-37792914D02*
X96623095Y-37888152D01*
X96623095Y-37888152D02*
X96575476Y-37935771D01*
X96575476Y-37935771D02*
X96480238Y-37983390D01*
X96480238Y-37983390D02*
X96289762Y-37983390D01*
X96289762Y-37983390D02*
X96194524Y-38031009D01*
X96194524Y-38031009D02*
X96146905Y-38078628D01*
X96146905Y-38078628D02*
X96099286Y-38173866D01*
X96099286Y-38173866D02*
X96099286Y-38364342D01*
X96099286Y-38364342D02*
X96146905Y-38459580D01*
X96146905Y-38459580D02*
X96194524Y-38507200D01*
X96194524Y-38507200D02*
X96289762Y-38554819D01*
X96289762Y-38554819D02*
X96480238Y-38554819D01*
X96480238Y-38554819D02*
X96575476Y-38507200D01*
X96575476Y-38507200D02*
X96623095Y-38459580D01*
X96623095Y-38459580D02*
X96670714Y-38364342D01*
X96670714Y-38364342D02*
X96670714Y-38173866D01*
X96670714Y-38173866D02*
X96623095Y-38078628D01*
X96623095Y-38078628D02*
X96575476Y-38031009D01*
X96575476Y-38031009D02*
X96480238Y-37983390D01*
X118459524Y-58351009D02*
X118792857Y-58351009D01*
X118935714Y-58874819D02*
X118459524Y-58874819D01*
X118459524Y-58874819D02*
X118459524Y-57874819D01*
X118459524Y-57874819D02*
X118935714Y-57874819D01*
X119840476Y-57874819D02*
X119364286Y-57874819D01*
X119364286Y-57874819D02*
X119316667Y-58351009D01*
X119316667Y-58351009D02*
X119364286Y-58303390D01*
X119364286Y-58303390D02*
X119459524Y-58255771D01*
X119459524Y-58255771D02*
X119697619Y-58255771D01*
X119697619Y-58255771D02*
X119792857Y-58303390D01*
X119792857Y-58303390D02*
X119840476Y-58351009D01*
X119840476Y-58351009D02*
X119888095Y-58446247D01*
X119888095Y-58446247D02*
X119888095Y-58684342D01*
X119888095Y-58684342D02*
X119840476Y-58779580D01*
X119840476Y-58779580D02*
X119792857Y-58827200D01*
X119792857Y-58827200D02*
X119697619Y-58874819D01*
X119697619Y-58874819D02*
X119459524Y-58874819D01*
X119459524Y-58874819D02*
X119364286Y-58827200D01*
X119364286Y-58827200D02*
X119316667Y-58779580D01*
X118459524Y-73591009D02*
X118792857Y-73591009D01*
X118935714Y-74114819D02*
X118459524Y-74114819D01*
X118459524Y-74114819D02*
X118459524Y-73114819D01*
X118459524Y-73114819D02*
X118935714Y-73114819D01*
X119411905Y-74114819D02*
X119602381Y-74114819D01*
X119602381Y-74114819D02*
X119697619Y-74067200D01*
X119697619Y-74067200D02*
X119745238Y-74019580D01*
X119745238Y-74019580D02*
X119840476Y-73876723D01*
X119840476Y-73876723D02*
X119888095Y-73686247D01*
X119888095Y-73686247D02*
X119888095Y-73305295D01*
X119888095Y-73305295D02*
X119840476Y-73210057D01*
X119840476Y-73210057D02*
X119792857Y-73162438D01*
X119792857Y-73162438D02*
X119697619Y-73114819D01*
X119697619Y-73114819D02*
X119507143Y-73114819D01*
X119507143Y-73114819D02*
X119411905Y-73162438D01*
X119411905Y-73162438D02*
X119364286Y-73210057D01*
X119364286Y-73210057D02*
X119316667Y-73305295D01*
X119316667Y-73305295D02*
X119316667Y-73543390D01*
X119316667Y-73543390D02*
X119364286Y-73638628D01*
X119364286Y-73638628D02*
X119411905Y-73686247D01*
X119411905Y-73686247D02*
X119507143Y-73733866D01*
X119507143Y-73733866D02*
X119697619Y-73733866D01*
X119697619Y-73733866D02*
X119792857Y-73686247D01*
X119792857Y-73686247D02*
X119840476Y-73638628D01*
X119840476Y-73638628D02*
X119888095Y-73543390D01*
X108640714Y-92529819D02*
X108640714Y-91529819D01*
X108640714Y-91529819D02*
X109021666Y-91529819D01*
X109021666Y-91529819D02*
X109116904Y-91577438D01*
X109116904Y-91577438D02*
X109164523Y-91625057D01*
X109164523Y-91625057D02*
X109212142Y-91720295D01*
X109212142Y-91720295D02*
X109212142Y-91863152D01*
X109212142Y-91863152D02*
X109164523Y-91958390D01*
X109164523Y-91958390D02*
X109116904Y-92006009D01*
X109116904Y-92006009D02*
X109021666Y-92053628D01*
X109021666Y-92053628D02*
X108640714Y-92053628D01*
X110164523Y-92529819D02*
X109593095Y-92529819D01*
X109878809Y-92529819D02*
X109878809Y-91529819D01*
X109878809Y-91529819D02*
X109783571Y-91672676D01*
X109783571Y-91672676D02*
X109688333Y-91767914D01*
X109688333Y-91767914D02*
X109593095Y-91815533D01*
X110783571Y-91529819D02*
X110878809Y-91529819D01*
X110878809Y-91529819D02*
X110974047Y-91577438D01*
X110974047Y-91577438D02*
X111021666Y-91625057D01*
X111021666Y-91625057D02*
X111069285Y-91720295D01*
X111069285Y-91720295D02*
X111116904Y-91910771D01*
X111116904Y-91910771D02*
X111116904Y-92148866D01*
X111116904Y-92148866D02*
X111069285Y-92339342D01*
X111069285Y-92339342D02*
X111021666Y-92434580D01*
X111021666Y-92434580D02*
X110974047Y-92482200D01*
X110974047Y-92482200D02*
X110878809Y-92529819D01*
X110878809Y-92529819D02*
X110783571Y-92529819D01*
X110783571Y-92529819D02*
X110688333Y-92482200D01*
X110688333Y-92482200D02*
X110640714Y-92434580D01*
X110640714Y-92434580D02*
X110593095Y-92339342D01*
X110593095Y-92339342D02*
X110545476Y-92148866D01*
X110545476Y-92148866D02*
X110545476Y-91910771D01*
X110545476Y-91910771D02*
X110593095Y-91720295D01*
X110593095Y-91720295D02*
X110640714Y-91625057D01*
X110640714Y-91625057D02*
X110688333Y-91577438D01*
X110688333Y-91577438D02*
X110783571Y-91529819D01*
X165728333Y-79449819D02*
X165252143Y-79449819D01*
X165252143Y-79449819D02*
X165252143Y-78449819D01*
X166633095Y-79354580D02*
X166585476Y-79402200D01*
X166585476Y-79402200D02*
X166442619Y-79449819D01*
X166442619Y-79449819D02*
X166347381Y-79449819D01*
X166347381Y-79449819D02*
X166204524Y-79402200D01*
X166204524Y-79402200D02*
X166109286Y-79306961D01*
X166109286Y-79306961D02*
X166061667Y-79211723D01*
X166061667Y-79211723D02*
X166014048Y-79021247D01*
X166014048Y-79021247D02*
X166014048Y-78878390D01*
X166014048Y-78878390D02*
X166061667Y-78687914D01*
X166061667Y-78687914D02*
X166109286Y-78592676D01*
X166109286Y-78592676D02*
X166204524Y-78497438D01*
X166204524Y-78497438D02*
X166347381Y-78449819D01*
X166347381Y-78449819D02*
X166442619Y-78449819D01*
X166442619Y-78449819D02*
X166585476Y-78497438D01*
X166585476Y-78497438D02*
X166633095Y-78545057D01*
X167585476Y-79449819D02*
X167014048Y-79449819D01*
X167299762Y-79449819D02*
X167299762Y-78449819D01*
X167299762Y-78449819D02*
X167204524Y-78592676D01*
X167204524Y-78592676D02*
X167109286Y-78687914D01*
X167109286Y-78687914D02*
X167014048Y-78735533D01*
X80541905Y-91894819D02*
X80541905Y-90894819D01*
X80541905Y-90894819D02*
X80922857Y-90894819D01*
X80922857Y-90894819D02*
X81018095Y-90942438D01*
X81018095Y-90942438D02*
X81065714Y-90990057D01*
X81065714Y-90990057D02*
X81113333Y-91085295D01*
X81113333Y-91085295D02*
X81113333Y-91228152D01*
X81113333Y-91228152D02*
X81065714Y-91323390D01*
X81065714Y-91323390D02*
X81018095Y-91371009D01*
X81018095Y-91371009D02*
X80922857Y-91418628D01*
X80922857Y-91418628D02*
X80541905Y-91418628D01*
X81494286Y-90990057D02*
X81541905Y-90942438D01*
X81541905Y-90942438D02*
X81637143Y-90894819D01*
X81637143Y-90894819D02*
X81875238Y-90894819D01*
X81875238Y-90894819D02*
X81970476Y-90942438D01*
X81970476Y-90942438D02*
X82018095Y-90990057D01*
X82018095Y-90990057D02*
X82065714Y-91085295D01*
X82065714Y-91085295D02*
X82065714Y-91180533D01*
X82065714Y-91180533D02*
X82018095Y-91323390D01*
X82018095Y-91323390D02*
X81446667Y-91894819D01*
X81446667Y-91894819D02*
X82065714Y-91894819D01*
X117578333Y-85021009D02*
X117911666Y-85021009D01*
X118054523Y-85544819D02*
X117578333Y-85544819D01*
X117578333Y-85544819D02*
X117578333Y-84544819D01*
X117578333Y-84544819D02*
X118054523Y-84544819D01*
X119006904Y-85544819D02*
X118435476Y-85544819D01*
X118721190Y-85544819D02*
X118721190Y-84544819D01*
X118721190Y-84544819D02*
X118625952Y-84687676D01*
X118625952Y-84687676D02*
X118530714Y-84782914D01*
X118530714Y-84782914D02*
X118435476Y-84830533D01*
X119387857Y-84640057D02*
X119435476Y-84592438D01*
X119435476Y-84592438D02*
X119530714Y-84544819D01*
X119530714Y-84544819D02*
X119768809Y-84544819D01*
X119768809Y-84544819D02*
X119864047Y-84592438D01*
X119864047Y-84592438D02*
X119911666Y-84640057D01*
X119911666Y-84640057D02*
X119959285Y-84735295D01*
X119959285Y-84735295D02*
X119959285Y-84830533D01*
X119959285Y-84830533D02*
X119911666Y-84973390D01*
X119911666Y-84973390D02*
X119340238Y-85544819D01*
X119340238Y-85544819D02*
X119959285Y-85544819D01*
X145288095Y-47879819D02*
X145288095Y-48689342D01*
X145288095Y-48689342D02*
X145335714Y-48784580D01*
X145335714Y-48784580D02*
X145383333Y-48832200D01*
X145383333Y-48832200D02*
X145478571Y-48879819D01*
X145478571Y-48879819D02*
X145669047Y-48879819D01*
X145669047Y-48879819D02*
X145764285Y-48832200D01*
X145764285Y-48832200D02*
X145811904Y-48784580D01*
X145811904Y-48784580D02*
X145859523Y-48689342D01*
X145859523Y-48689342D02*
X145859523Y-47879819D01*
X146859523Y-48879819D02*
X146288095Y-48879819D01*
X146573809Y-48879819D02*
X146573809Y-47879819D01*
X146573809Y-47879819D02*
X146478571Y-48022676D01*
X146478571Y-48022676D02*
X146383333Y-48117914D01*
X146383333Y-48117914D02*
X146288095Y-48165533D01*
D13*
%TO.C,P11*%
X113665000Y-71120000D02*
X106045000Y-71120000D01*
X106045000Y-71120000D02*
X106045000Y-81280000D01*
X113665000Y-81280000D02*
X113665000Y-71120000D01*
X107315000Y-81280000D02*
X107315000Y-71120000D01*
X106045000Y-81280000D02*
X113665000Y-81280000D01*
%TO.C,C1*%
X160920000Y-61110000D02*
X160920000Y-61175000D01*
X160920000Y-61110000D02*
X164160000Y-61110000D01*
X160920000Y-63285000D02*
X160920000Y-63350000D01*
X160920000Y-63350000D02*
X164160000Y-63350000D01*
X164160000Y-61110000D02*
X164160000Y-61175000D01*
X164160000Y-63285000D02*
X164160000Y-63350000D01*
%TO.C,LC2*%
X172780000Y-74930000D02*
X172780000Y-67250000D01*
X172780000Y-74930000D02*
X170120000Y-74930000D01*
X172780000Y-67250000D02*
X170120000Y-67250000D01*
X171450000Y-77530000D02*
X170120000Y-77530000D01*
X170120000Y-77530000D02*
X170120000Y-76200000D01*
X170120000Y-74930000D02*
X170120000Y-67250000D01*
%TO.C,R1*%
X166482500Y-94234724D02*
X166482500Y-93725276D01*
X167527500Y-94234724D02*
X167527500Y-93725276D01*
%TO.C,JP1*%
X157864280Y-46680818D02*
X157864280Y-46080818D01*
X158564280Y-45380818D02*
X159964280Y-45380818D01*
X159964280Y-47380818D02*
X158564280Y-47380818D01*
X160664280Y-46080818D02*
X160664280Y-46680818D01*
X158564280Y-45380818D02*
G75*
G03*
X157864280Y-46080818I-1J-699999D01*
G01*
X157864280Y-46680818D02*
G75*
G03*
X158564280Y-47380818I699999J-1D01*
G01*
X160664280Y-46080818D02*
G75*
G03*
X159964280Y-45380818I-700000J0D01*
G01*
X159964280Y-47380818D02*
G75*
G03*
X160664280Y-46680818I0J700000D01*
G01*
%TO.C,P6*%
X99695000Y-82550000D02*
X92075000Y-82550000D01*
X92075000Y-82550000D02*
X92075000Y-92710000D01*
X99695000Y-92710000D02*
X99695000Y-82550000D01*
X93345000Y-92710000D02*
X93345000Y-82550000D01*
X92075000Y-92710000D02*
X99695000Y-92710000D01*
%TO.C,P5*%
X99695000Y-104140000D02*
X92075000Y-104140000D01*
X92075000Y-104140000D02*
X92075000Y-114300000D01*
X99695000Y-114300000D02*
X99695000Y-104140000D01*
X93345000Y-114300000D02*
X93345000Y-104140000D01*
X92075000Y-114300000D02*
X99695000Y-114300000D01*
%TO.C,E7*%
X123190000Y-67370000D02*
X128330000Y-67370000D01*
X123190000Y-67370000D02*
X123190000Y-64710000D01*
X128330000Y-67370000D02*
X128330000Y-64710000D01*
X120590000Y-66040000D02*
X120590000Y-64710000D01*
X120590000Y-64710000D02*
X121920000Y-64710000D01*
X123190000Y-64710000D02*
X128330000Y-64710000D01*
%TO.C,P12*%
X113665000Y-49530000D02*
X106045000Y-49530000D01*
X106045000Y-49530000D02*
X106045000Y-59690000D01*
X113665000Y-59690000D02*
X113665000Y-49530000D01*
X107315000Y-59690000D02*
X107315000Y-49530000D01*
X106045000Y-59690000D02*
X113665000Y-59690000D01*
%TO.C,P_IN1*%
X80010000Y-129540000D02*
X80010000Y-137160000D01*
X80010000Y-137160000D02*
X90170000Y-137160000D01*
X90170000Y-129540000D02*
X80010000Y-129540000D01*
X90170000Y-135890000D02*
X80010000Y-135890000D01*
X90170000Y-137160000D02*
X90170000Y-129540000D01*
%TO.C,3V3*%
X121225000Y-91440000D02*
X121225000Y-99120000D01*
X121225000Y-91440000D02*
X123885000Y-91440000D01*
X121225000Y-99120000D02*
X123885000Y-99120000D01*
X122555000Y-88840000D02*
X123885000Y-88840000D01*
X123885000Y-88840000D02*
X123885000Y-90170000D01*
X123885000Y-91440000D02*
X123885000Y-99120000D01*
%TO.C,D1*%
X164485000Y-95525000D02*
X164485000Y-92435000D01*
X158935001Y-93979538D02*
G75*
G03*
X164484999Y-95524830I2989999J-462D01*
G01*
X164485000Y-92435170D02*
G75*
G03*
X158935000Y-93980462I-2560000J-1544830D01*
G01*
X164425000Y-93980000D02*
G75*
G03*
X164425000Y-93980000I-2500000J0D01*
G01*
%TO.C,G\u002A\u002A\u002A*%
G36*
X166567009Y-121771071D02*
G01*
X166567009Y-122158052D01*
X165922041Y-122158052D01*
X165277073Y-122158052D01*
X165277073Y-123465857D01*
X165277073Y-124773663D01*
X164925491Y-125037233D01*
X164573908Y-125300804D01*
X164409517Y-125300804D01*
X164245125Y-125300804D01*
X164245125Y-123729428D01*
X164245125Y-122158052D01*
X163600157Y-122158052D01*
X162955190Y-122158052D01*
X162955190Y-121771071D01*
X162955190Y-121384091D01*
X164761099Y-121384091D01*
X166567009Y-121384091D01*
X166567009Y-121771071D01*
G37*
G36*
X162611477Y-123324475D02*
G01*
X162718259Y-123612940D01*
X162820249Y-123888851D01*
X162916283Y-124149035D01*
X163005195Y-124390321D01*
X163085823Y-124609537D01*
X163157002Y-124803511D01*
X163217568Y-124969071D01*
X163266356Y-125103045D01*
X163302204Y-125202261D01*
X163323947Y-125263547D01*
X163330493Y-125283671D01*
X163308155Y-125288678D01*
X163245670Y-125292574D01*
X163149791Y-125295202D01*
X163027267Y-125296407D01*
X162884850Y-125296032D01*
X162823264Y-125295398D01*
X162316085Y-125289077D01*
X162196436Y-124943140D01*
X162076787Y-124597202D01*
X161287581Y-124597202D01*
X160498374Y-124597202D01*
X160375319Y-124949003D01*
X160252264Y-125300804D01*
X159739982Y-125300804D01*
X159227701Y-125300804D01*
X159274253Y-125177673D01*
X159289477Y-125136946D01*
X159319673Y-125055753D01*
X159363533Y-124937618D01*
X159419751Y-124786067D01*
X159487021Y-124604625D01*
X159564035Y-124396817D01*
X159649487Y-124166169D01*
X159742070Y-123916206D01*
X159764027Y-123856912D01*
X160769889Y-123856912D01*
X160770181Y-123858484D01*
X160796857Y-123862932D01*
X160861425Y-123866278D01*
X160955734Y-123868570D01*
X161071630Y-123869854D01*
X161200963Y-123870176D01*
X161335580Y-123869584D01*
X161467330Y-123868124D01*
X161588062Y-123865842D01*
X161689623Y-123862786D01*
X161763862Y-123859001D01*
X161802626Y-123854535D01*
X161806374Y-123852558D01*
X161799242Y-123824298D01*
X161778931Y-123758874D01*
X161747587Y-123662526D01*
X161707357Y-123541492D01*
X161660385Y-123402011D01*
X161608820Y-123250323D01*
X161554805Y-123092666D01*
X161500488Y-122935280D01*
X161448014Y-122784402D01*
X161399530Y-122646273D01*
X161357180Y-122527132D01*
X161323113Y-122433216D01*
X161299473Y-122370766D01*
X161288406Y-122346019D01*
X161288113Y-122345854D01*
X161277096Y-122367037D01*
X161253532Y-122426528D01*
X161219558Y-122518087D01*
X161177311Y-122635473D01*
X161128926Y-122772446D01*
X161076542Y-122922766D01*
X161022295Y-123080191D01*
X160968321Y-123238480D01*
X160916758Y-123391395D01*
X160869743Y-123532693D01*
X160829411Y-123656134D01*
X160797900Y-123755478D01*
X160777347Y-123824484D01*
X160769889Y-123856912D01*
X159764027Y-123856912D01*
X159840479Y-123650453D01*
X159943406Y-123372436D01*
X159997914Y-123225180D01*
X160675023Y-121395817D01*
X161283717Y-121389572D01*
X161892411Y-121383326D01*
X162611477Y-123324475D01*
G37*
G36*
X174117516Y-113932099D02*
G01*
X174137074Y-113971644D01*
X174151003Y-114012981D01*
X174235559Y-114342348D01*
X174285841Y-114698693D01*
X174302171Y-115077316D01*
X174284871Y-115473517D01*
X174234261Y-115882596D01*
X174150663Y-116299853D01*
X174034398Y-116720589D01*
X173948608Y-116974083D01*
X173868152Y-117196115D01*
X173946294Y-117361063D01*
X174049339Y-117632015D01*
X174113002Y-117923449D01*
X174137080Y-118230055D01*
X174121372Y-118546525D01*
X174065675Y-118867548D01*
X174011185Y-119065865D01*
X173978113Y-119163378D01*
X173938088Y-119269893D01*
X173894980Y-119376459D01*
X173852659Y-119474123D01*
X173814995Y-119553932D01*
X173785857Y-119606933D01*
X173769793Y-119624320D01*
X173754198Y-119604599D01*
X173720256Y-119550561D01*
X173672063Y-119469080D01*
X173613712Y-119367030D01*
X173570717Y-119290109D01*
X173432405Y-119046295D01*
X173292418Y-118810424D01*
X173153684Y-118586794D01*
X173019132Y-118379700D01*
X172891692Y-118193439D01*
X172774291Y-118032307D01*
X172669859Y-117900600D01*
X172581325Y-117802616D01*
X172519536Y-117748161D01*
X172432186Y-117699835D01*
X172335472Y-117667456D01*
X172317012Y-117664003D01*
X172198984Y-117656155D01*
X172039151Y-117661742D01*
X171840518Y-117680339D01*
X171606092Y-117711523D01*
X171338880Y-117754869D01*
X171041888Y-117809953D01*
X170718124Y-117876350D01*
X170546412Y-117913821D01*
X170412122Y-117943461D01*
X170293581Y-117969196D01*
X170198404Y-117989408D01*
X170134209Y-118002478D01*
X170108915Y-118006805D01*
X170104178Y-117987264D01*
X170118683Y-117933289D01*
X170149636Y-117851853D01*
X170194241Y-117749931D01*
X170249702Y-117634496D01*
X170288422Y-117558994D01*
X170460470Y-117274104D01*
X170660853Y-117017439D01*
X170885493Y-116792585D01*
X171130313Y-116603132D01*
X171391235Y-116452666D01*
X171664182Y-116344776D01*
X171670395Y-116342877D01*
X171834826Y-116292932D01*
X171908542Y-116143444D01*
X171970894Y-116025406D01*
X172053335Y-115881464D01*
X172148439Y-115723703D01*
X172248783Y-115564210D01*
X172346942Y-115415072D01*
X172424399Y-115303684D01*
X172627311Y-115043884D01*
X172853551Y-114793344D01*
X173095572Y-114558832D01*
X173345825Y-114347111D01*
X173596761Y-114164948D01*
X173840833Y-114019109D01*
X173880183Y-113998875D01*
X173980689Y-113949339D01*
X174047978Y-113921397D01*
X174090702Y-113915500D01*
X174117516Y-113932099D01*
G37*
G36*
X157465261Y-121324621D02*
G01*
X157763746Y-121349728D01*
X158069528Y-121394655D01*
X158376716Y-121459444D01*
X158458006Y-121480051D01*
X158545956Y-121503166D01*
X158545956Y-121912696D01*
X158544926Y-122045403D01*
X158542067Y-122160174D01*
X158537730Y-122249495D01*
X158532261Y-122305852D01*
X158526950Y-122322226D01*
X158497003Y-122314145D01*
X158436566Y-122292940D01*
X158358598Y-122263161D01*
X158356913Y-122262495D01*
X158120748Y-122181456D01*
X157872992Y-122118712D01*
X157625397Y-122076148D01*
X157389717Y-122055646D01*
X157177704Y-122059089D01*
X157122883Y-122064764D01*
X156949359Y-122097955D01*
X156817414Y-122149374D01*
X156724621Y-122221012D01*
X156668554Y-122314856D01*
X156646785Y-122432894D01*
X156646321Y-122455283D01*
X156651618Y-122532849D01*
X156670567Y-122598215D01*
X156707572Y-122653899D01*
X156767033Y-122702422D01*
X156853355Y-122746304D01*
X156970940Y-122788063D01*
X157124191Y-122830221D01*
X157317511Y-122875296D01*
X157418324Y-122897112D01*
X157679864Y-122956623D01*
X157899958Y-123015676D01*
X158083992Y-123076451D01*
X158237352Y-123141127D01*
X158365425Y-123211882D01*
X158473596Y-123290896D01*
X158538217Y-123350138D01*
X158649297Y-123483191D01*
X158728376Y-123631418D01*
X158778077Y-123802284D01*
X158801022Y-124003254D01*
X158803318Y-124104682D01*
X158785201Y-124366085D01*
X158730971Y-124597565D01*
X158640553Y-124799219D01*
X158513874Y-124971148D01*
X158350859Y-125113450D01*
X158151435Y-125226224D01*
X157915527Y-125309570D01*
X157900988Y-125313434D01*
X157802307Y-125332995D01*
X157670392Y-125350416D01*
X157518904Y-125364599D01*
X157361503Y-125374443D01*
X157211852Y-125378851D01*
X157103574Y-125377602D01*
X156723917Y-125344399D01*
X156336342Y-125272310D01*
X155995402Y-125179573D01*
X155755005Y-125105320D01*
X155755005Y-124676695D01*
X155755005Y-124248071D01*
X155936769Y-124331249D01*
X156190124Y-124440213D01*
X156417576Y-124521956D01*
X156629431Y-124579076D01*
X156835994Y-124614171D01*
X157047573Y-124629837D01*
X157127027Y-124631222D01*
X157310563Y-124626273D01*
X157455967Y-124608521D01*
X157570711Y-124576144D01*
X157662266Y-124527323D01*
X157709220Y-124489339D01*
X157773293Y-124413730D01*
X157807844Y-124326459D01*
X157818780Y-124212089D01*
X157818814Y-124202832D01*
X157800975Y-124080094D01*
X157745711Y-123982709D01*
X157650079Y-123906323D01*
X157601342Y-123881347D01*
X157539401Y-123858052D01*
X157441429Y-123827220D01*
X157317153Y-123791639D01*
X157176298Y-123754096D01*
X157033214Y-123718488D01*
X156804868Y-123661586D01*
X156616338Y-123609096D01*
X156461095Y-123558185D01*
X156332611Y-123506019D01*
X156224357Y-123449765D01*
X156129805Y-123386590D01*
X156042426Y-123313660D01*
X155994301Y-123267609D01*
X155879761Y-123130906D01*
X155798202Y-122977964D01*
X155744746Y-122798392D01*
X155727643Y-122699730D01*
X155714214Y-122458548D01*
X155742249Y-122230178D01*
X155809787Y-122018831D01*
X155914867Y-121828722D01*
X156055529Y-121664063D01*
X156229813Y-121529066D01*
X156288360Y-121494982D01*
X156462042Y-121421592D01*
X156672462Y-121367821D01*
X156913730Y-121333708D01*
X157179959Y-121319295D01*
X157465261Y-121324621D01*
G37*
G36*
X172062184Y-118138863D02*
G01*
X172136295Y-118150115D01*
X172203542Y-118174704D01*
X172262613Y-118205278D01*
X172392711Y-118302541D01*
X172487389Y-118427709D01*
X172543654Y-118574796D01*
X172558514Y-118737817D01*
X172554430Y-118789111D01*
X172540022Y-118846563D01*
X172508793Y-118934657D01*
X172465089Y-119042177D01*
X172413257Y-119157906D01*
X172403553Y-119178422D01*
X172155952Y-119657168D01*
X171865093Y-120147310D01*
X171532720Y-120647009D01*
X171160577Y-121154427D01*
X170750406Y-121667724D01*
X170303952Y-122185063D01*
X169822957Y-122704605D01*
X169309166Y-123224510D01*
X168764321Y-123742940D01*
X168190166Y-124258057D01*
X167588444Y-124768021D01*
X166960900Y-125270995D01*
X166309276Y-125765138D01*
X165828228Y-126112968D01*
X165067857Y-126637248D01*
X164298346Y-127139189D01*
X163522235Y-127617665D01*
X162742064Y-128071552D01*
X161960375Y-128499726D01*
X161179708Y-128901063D01*
X160402602Y-129274438D01*
X159631599Y-129618727D01*
X158869239Y-129932807D01*
X158118062Y-130215552D01*
X157380609Y-130465838D01*
X156659420Y-130682541D01*
X155957036Y-130864538D01*
X155275997Y-131010702D01*
X154618844Y-131119912D01*
X154468952Y-131139990D01*
X153989480Y-131191725D01*
X153541776Y-131220692D01*
X153129275Y-131226718D01*
X152893694Y-131218912D01*
X152423786Y-131178327D01*
X151988909Y-131108400D01*
X151586873Y-131008335D01*
X151215490Y-130877340D01*
X150872571Y-130714618D01*
X150555928Y-130519377D01*
X150263372Y-130290821D01*
X150213047Y-130246033D01*
X149980181Y-130006388D01*
X149790977Y-129750032D01*
X149645521Y-129477622D01*
X149543902Y-129189814D01*
X149486208Y-128887263D01*
X149472525Y-128570627D01*
X149502942Y-128240559D01*
X149577546Y-127897718D01*
X149696425Y-127542758D01*
X149815080Y-127268158D01*
X150023121Y-126871924D01*
X150273949Y-126471739D01*
X150564231Y-126072212D01*
X150890635Y-125677949D01*
X151225314Y-125318394D01*
X151338409Y-125204949D01*
X151424780Y-125122376D01*
X151489130Y-125066725D01*
X151536162Y-125034045D01*
X151570581Y-125020387D01*
X151581375Y-125019363D01*
X151649335Y-125037655D01*
X151698039Y-125083753D01*
X151715616Y-125144490D01*
X151712692Y-125165002D01*
X151693315Y-125198951D01*
X151647694Y-125261320D01*
X151580948Y-125345649D01*
X151498194Y-125445479D01*
X151404551Y-125554350D01*
X151400661Y-125558791D01*
X151127292Y-125877557D01*
X150887849Y-126172072D01*
X150679160Y-126446786D01*
X150498051Y-126706151D01*
X150341349Y-126954618D01*
X150205882Y-127196640D01*
X150139457Y-127328245D01*
X150057833Y-127499464D01*
X149994757Y-127640593D01*
X149946212Y-127762665D01*
X149908179Y-127876713D01*
X149876640Y-127993769D01*
X149847577Y-128124866D01*
X149845337Y-128135808D01*
X149801976Y-128442137D01*
X149801177Y-128729419D01*
X149843429Y-128999337D01*
X149929217Y-129253576D01*
X150059028Y-129493819D01*
X150233349Y-129721750D01*
X150334585Y-129828879D01*
X150588663Y-130048718D01*
X150878089Y-130238997D01*
X151201245Y-130399033D01*
X151556513Y-130528143D01*
X151942275Y-130625645D01*
X152356914Y-130690855D01*
X152382659Y-130693724D01*
X152548930Y-130706869D01*
X152749451Y-130714773D01*
X152971870Y-130717535D01*
X153203834Y-130715252D01*
X153432991Y-130708024D01*
X153646989Y-130695948D01*
X153803179Y-130682426D01*
X154376418Y-130605164D01*
X154975487Y-130491000D01*
X155598384Y-130340787D01*
X156243104Y-130155379D01*
X156907647Y-129935630D01*
X157590009Y-129682396D01*
X158288187Y-129396529D01*
X159000178Y-129078884D01*
X159723981Y-128730315D01*
X160457592Y-128351676D01*
X161199009Y-127943821D01*
X161946228Y-127507605D01*
X162697248Y-127043881D01*
X163389077Y-126594190D01*
X164362949Y-125923338D01*
X165293700Y-125236036D01*
X166182470Y-124531366D01*
X167030400Y-123808409D01*
X167838629Y-123066248D01*
X168181824Y-122733516D01*
X168751983Y-122153350D01*
X169276413Y-121582096D01*
X169755372Y-121019420D01*
X170189116Y-120464987D01*
X170577904Y-119918463D01*
X170921993Y-119379514D01*
X171221640Y-118847805D01*
X171315993Y-118663500D01*
X171374189Y-118548922D01*
X171428125Y-118446711D01*
X171473065Y-118365555D01*
X171504275Y-118314140D01*
X171512328Y-118303301D01*
X171554667Y-118267927D01*
X171621429Y-118224496D01*
X171668117Y-118198352D01*
X171745159Y-118163466D01*
X171820634Y-118144447D01*
X171914637Y-118137048D01*
X171961284Y-118136393D01*
X172062184Y-118138863D01*
G37*
G36*
X170266470Y-122813635D02*
G01*
X170272655Y-122876446D01*
X170276037Y-122973403D01*
X170276858Y-123098186D01*
X170275362Y-123244471D01*
X170271793Y-123405936D01*
X170266393Y-123576259D01*
X170259407Y-123749118D01*
X170251078Y-123918191D01*
X170241648Y-124077155D01*
X170231362Y-124219689D01*
X170220464Y-124339470D01*
X170209195Y-124430176D01*
X170197801Y-124485485D01*
X170191497Y-124498599D01*
X170163991Y-124504253D01*
X170097011Y-124510294D01*
X169997982Y-124516282D01*
X169874329Y-124521779D01*
X169733477Y-124526344D01*
X169714457Y-124526842D01*
X169253873Y-124538569D01*
X169214771Y-124773103D01*
X169147409Y-125115543D01*
X169056945Y-125479425D01*
X168947676Y-125848113D01*
X168899847Y-125992678D01*
X168853270Y-126129993D01*
X168820663Y-126229836D01*
X168800624Y-126299050D01*
X168791750Y-126344479D01*
X168792639Y-126372967D01*
X168801889Y-126391357D01*
X168815480Y-126404332D01*
X168849490Y-126427925D01*
X168916397Y-126470523D01*
X169008617Y-126527436D01*
X169118566Y-126593970D01*
X169213549Y-126650592D01*
X169328456Y-126719830D01*
X169427882Y-126782013D01*
X169505306Y-126832877D01*
X169554210Y-126868159D01*
X169568486Y-126882740D01*
X169557987Y-126917760D01*
X169527892Y-126987477D01*
X169481468Y-127085630D01*
X169421979Y-127205959D01*
X169352692Y-127342202D01*
X169276872Y-127488097D01*
X169197786Y-127637384D01*
X169118699Y-127783802D01*
X169042877Y-127921089D01*
X168973585Y-128042985D01*
X168914090Y-128143228D01*
X168895046Y-128173841D01*
X168775666Y-128359578D01*
X168668143Y-128521146D01*
X168574625Y-128655594D01*
X168497261Y-128759971D01*
X168438199Y-128831327D01*
X168399588Y-128866709D01*
X168388264Y-128869900D01*
X168359924Y-128856632D01*
X168297567Y-128824324D01*
X168208187Y-128776702D01*
X168098778Y-128717492D01*
X167980943Y-128652957D01*
X167859498Y-128586653D01*
X167751887Y-128528992D01*
X167664936Y-128483544D01*
X167605472Y-128453878D01*
X167580468Y-128443555D01*
X167557581Y-128460671D01*
X167513857Y-128506359D01*
X167457209Y-128572128D01*
X167433015Y-128601769D01*
X167337245Y-128714523D01*
X167214712Y-128849225D01*
X167074102Y-128997104D01*
X166924100Y-129149386D01*
X166773390Y-129297301D01*
X166630659Y-129432075D01*
X166504591Y-129544938D01*
X166470540Y-129573864D01*
X166383566Y-129647955D01*
X166311463Y-129712027D01*
X166261034Y-129759839D01*
X166239079Y-129785150D01*
X166238662Y-129786638D01*
X166249478Y-129812277D01*
X166279549Y-129872100D01*
X166325309Y-129959307D01*
X166383191Y-130067101D01*
X166448063Y-130185837D01*
X166514915Y-130307927D01*
X166573769Y-130416729D01*
X166620898Y-130505247D01*
X166652578Y-130566489D01*
X166665007Y-130593157D01*
X166649602Y-130620224D01*
X166596681Y-130668864D01*
X166509196Y-130736929D01*
X166390098Y-130822272D01*
X166242338Y-130922742D01*
X166068866Y-131036193D01*
X165968948Y-131099940D01*
X165878168Y-131155082D01*
X165763470Y-131221190D01*
X165631105Y-131295006D01*
X165487326Y-131373268D01*
X165338386Y-131452717D01*
X165190536Y-131530092D01*
X165050029Y-131602133D01*
X164923118Y-131665581D01*
X164816054Y-131717175D01*
X164735091Y-131753654D01*
X164686480Y-131771760D01*
X164677846Y-131773147D01*
X164659207Y-131753686D01*
X164621271Y-131700177D01*
X164568309Y-131619130D01*
X164504591Y-131517052D01*
X164444479Y-131417462D01*
X164373426Y-131298895D01*
X164308414Y-131192076D01*
X164254111Y-131104545D01*
X164215185Y-131043843D01*
X164198218Y-131019626D01*
X164183284Y-131004633D01*
X164163636Y-130996851D01*
X164132455Y-130997693D01*
X164082921Y-131008573D01*
X164008215Y-131030907D01*
X163901517Y-131066107D01*
X163787784Y-131104740D01*
X163421712Y-131220337D01*
X163053808Y-131318832D01*
X162700717Y-131395929D01*
X162568209Y-131419671D01*
X162333675Y-131458780D01*
X162321949Y-131919361D01*
X162317536Y-132061889D01*
X162312134Y-132188174D01*
X162306184Y-132290792D01*
X162300125Y-132362317D01*
X162294397Y-132395326D01*
X162293705Y-132396394D01*
X162254686Y-132412157D01*
X162174694Y-132426361D01*
X162059639Y-132438875D01*
X161915432Y-132449563D01*
X161747986Y-132458291D01*
X161563210Y-132464925D01*
X161367018Y-132469331D01*
X161165319Y-132471374D01*
X160964025Y-132470921D01*
X160769048Y-132467838D01*
X160586299Y-132461990D01*
X160421689Y-132453243D01*
X160285902Y-132441962D01*
X160175114Y-132429916D01*
X160082738Y-132418786D01*
X160017968Y-132409758D01*
X159989999Y-132404018D01*
X159989641Y-132403753D01*
X159986383Y-132378871D01*
X159981663Y-132314314D01*
X159975903Y-132217277D01*
X159969524Y-132094954D01*
X159962948Y-131954539D01*
X159961791Y-131928262D01*
X159941432Y-131461076D01*
X159659991Y-131409114D01*
X159279862Y-131330724D01*
X158923037Y-131239063D01*
X158566479Y-131128138D01*
X158522503Y-131113209D01*
X158401526Y-131071857D01*
X158294294Y-131035316D01*
X158209577Y-131006567D01*
X158156147Y-130988591D01*
X158144022Y-130984610D01*
X158124017Y-130989940D01*
X158094317Y-131018791D01*
X158052067Y-131075128D01*
X157994411Y-131162916D01*
X157918493Y-131286118D01*
X157876762Y-131355590D01*
X157804263Y-131476509D01*
X157739405Y-131583800D01*
X157686231Y-131670848D01*
X157648783Y-131731040D01*
X157631102Y-131757761D01*
X157630882Y-131758018D01*
X157604304Y-131756193D01*
X157544069Y-131737275D01*
X157458849Y-131704384D01*
X157357319Y-131660637D01*
X157346987Y-131655960D01*
X157245845Y-131608456D01*
X157130233Y-131551685D01*
X157006963Y-131489280D01*
X156882847Y-131424874D01*
X156764697Y-131362097D01*
X156659325Y-131304584D01*
X156573542Y-131255966D01*
X156514161Y-131219875D01*
X156487993Y-131199944D01*
X156487600Y-131197695D01*
X156511901Y-131188428D01*
X156573466Y-131168411D01*
X156664542Y-131140071D01*
X156777375Y-131105834D01*
X156858565Y-131081611D01*
X157296149Y-130947431D01*
X157756031Y-130798195D01*
X158224121Y-130638795D01*
X158686331Y-130474123D01*
X159128572Y-130309070D01*
X159479967Y-130171441D01*
X159862824Y-130017671D01*
X160183568Y-130067523D01*
X160299093Y-130084153D01*
X160410249Y-130096834D01*
X160526285Y-130106075D01*
X160656450Y-130112384D01*
X160809993Y-130116270D01*
X160996162Y-130118240D01*
X161114100Y-130118689D01*
X161347784Y-130118127D01*
X161545184Y-130114696D01*
X161716887Y-130107431D01*
X161873478Y-130095364D01*
X162025541Y-130077528D01*
X162183663Y-130052957D01*
X162358428Y-130020685D01*
X162501039Y-129992027D01*
X163048921Y-129855897D01*
X163579030Y-129677016D01*
X164089318Y-129456812D01*
X164577733Y-129196715D01*
X165042225Y-128898153D01*
X165480743Y-128562554D01*
X165891237Y-128191347D01*
X166271656Y-127785961D01*
X166619951Y-127347824D01*
X166906874Y-126922469D01*
X167111763Y-126570861D01*
X167291433Y-126213309D01*
X167452466Y-125835748D01*
X167584388Y-125474587D01*
X167681044Y-125191030D01*
X168079581Y-124841346D01*
X168334517Y-124615613D01*
X168580663Y-124393195D01*
X168825774Y-124166836D01*
X169077604Y-123929280D01*
X169343906Y-123673273D01*
X169632436Y-123391557D01*
X169700219Y-123324863D01*
X169831600Y-123195884D01*
X169952425Y-123078133D01*
X170058634Y-122975499D01*
X170146168Y-122891871D01*
X170210965Y-122831138D01*
X170248968Y-122797189D01*
X170257237Y-122791293D01*
X170266470Y-122813635D01*
G37*
G36*
X161461568Y-114220531D02*
G01*
X161610367Y-114227599D01*
X161806923Y-114239840D01*
X161961775Y-114250245D01*
X162080052Y-114259591D01*
X162166881Y-114268656D01*
X162227393Y-114278216D01*
X162266717Y-114289050D01*
X162289981Y-114301934D01*
X162302315Y-114317646D01*
X162307905Y-114333315D01*
X162312245Y-114372225D01*
X162316035Y-114449462D01*
X162319028Y-114556447D01*
X162320976Y-114684600D01*
X162321629Y-114808066D01*
X162321949Y-115232872D01*
X162503712Y-115261360D01*
X162729567Y-115302495D01*
X162982453Y-115358286D01*
X163247937Y-115424889D01*
X163511585Y-115498459D01*
X163758963Y-115575150D01*
X163975636Y-115651117D01*
X163995869Y-115658838D01*
X164171104Y-115726315D01*
X164364958Y-115406588D01*
X164435850Y-115289787D01*
X164502441Y-115180292D01*
X164559015Y-115087488D01*
X164599853Y-115020762D01*
X164612515Y-115000223D01*
X164666217Y-114913586D01*
X164942329Y-115039441D01*
X165078987Y-115103654D01*
X165230396Y-115177859D01*
X165375374Y-115251540D01*
X165464700Y-115298803D01*
X165603444Y-115376344D01*
X165751921Y-115463387D01*
X165904906Y-115556461D01*
X166057175Y-115652098D01*
X166203501Y-115746827D01*
X166338660Y-115837179D01*
X166457426Y-115919685D01*
X166554574Y-115990876D01*
X166624878Y-116047281D01*
X166663114Y-116085432D01*
X166668494Y-116098093D01*
X166656266Y-116124252D01*
X166624711Y-116184493D01*
X166577498Y-116272012D01*
X166518295Y-116380010D01*
X166451550Y-116500288D01*
X166384342Y-116621776D01*
X166325855Y-116729518D01*
X166279683Y-116816726D01*
X166249420Y-116876613D01*
X166238662Y-116902333D01*
X166255626Y-116924719D01*
X166301695Y-116969967D01*
X166369628Y-117031283D01*
X166443879Y-117094925D01*
X166596852Y-117229126D01*
X166767923Y-117389260D01*
X166946168Y-117564411D01*
X167120661Y-117743662D01*
X167280481Y-117916094D01*
X167385495Y-118035969D01*
X167579401Y-118264486D01*
X167677129Y-118208162D01*
X167776883Y-118151419D01*
X167888994Y-118088861D01*
X168005914Y-118024556D01*
X168120094Y-117962573D01*
X168223986Y-117906980D01*
X168310041Y-117861844D01*
X168370710Y-117831235D01*
X168398446Y-117819219D01*
X168398896Y-117819178D01*
X168421178Y-117837956D01*
X168464371Y-117890245D01*
X168524215Y-117969976D01*
X168596445Y-118071081D01*
X168676801Y-118187492D01*
X168761018Y-118313142D01*
X168844835Y-118441962D01*
X168917867Y-118557960D01*
X169009301Y-118709921D01*
X169101661Y-118870695D01*
X169192289Y-119034934D01*
X169278530Y-119197291D01*
X169357727Y-119352420D01*
X169427222Y-119494973D01*
X169484360Y-119619604D01*
X169526484Y-119720964D01*
X169550938Y-119793708D01*
X169555064Y-119832488D01*
X169552859Y-119836041D01*
X169527559Y-119852851D01*
X169468561Y-119889568D01*
X169382493Y-119942146D01*
X169275983Y-120006533D01*
X169155661Y-120078683D01*
X169152743Y-120080426D01*
X169033577Y-120152547D01*
X168929645Y-120217263D01*
X168847188Y-120270538D01*
X168792446Y-120308335D01*
X168771663Y-120326618D01*
X168771626Y-120326904D01*
X168779370Y-120355632D01*
X168800231Y-120417855D01*
X168830654Y-120503223D01*
X168853749Y-120565895D01*
X168897287Y-120688790D01*
X168945133Y-120833628D01*
X168989663Y-120976985D01*
X169007913Y-121039423D01*
X169079955Y-121292816D01*
X168849996Y-121543670D01*
X168768821Y-121631172D01*
X168672422Y-121733389D01*
X168565471Y-121845542D01*
X168452638Y-121962847D01*
X168338596Y-122080525D01*
X168228014Y-122193794D01*
X168125564Y-122297873D01*
X168035916Y-122387981D01*
X167963742Y-122459337D01*
X167913713Y-122507159D01*
X167890500Y-122526667D01*
X167889521Y-122526794D01*
X167883473Y-122502564D01*
X167872038Y-122442092D01*
X167857057Y-122355482D01*
X167845749Y-122286594D01*
X167733745Y-121735189D01*
X167578311Y-121198902D01*
X167380925Y-120680036D01*
X167143066Y-120180890D01*
X166866215Y-119703766D01*
X166551850Y-119250965D01*
X166201451Y-118824788D01*
X165816497Y-118427534D01*
X165398467Y-118061506D01*
X164948842Y-117729004D01*
X164890093Y-117689650D01*
X164412524Y-117400612D01*
X163919663Y-117154696D01*
X163414064Y-116951645D01*
X162898283Y-116791202D01*
X162374873Y-116673111D01*
X161846390Y-116597114D01*
X161315387Y-116562956D01*
X160784419Y-116570377D01*
X160256042Y-116619123D01*
X159732809Y-116708936D01*
X159217274Y-116839558D01*
X158711994Y-117010734D01*
X158219521Y-117222206D01*
X157742411Y-117473718D01*
X157283218Y-117765011D01*
X156844497Y-118095831D01*
X156428802Y-118465919D01*
X156344189Y-118549083D01*
X155966331Y-118959529D01*
X155625944Y-119396450D01*
X155323907Y-119857126D01*
X155061100Y-120338837D01*
X154838401Y-120838860D01*
X154656689Y-121354477D01*
X154516843Y-121882966D01*
X154419742Y-122421606D01*
X154366265Y-122967677D01*
X154357290Y-123518459D01*
X154393698Y-124071229D01*
X154442835Y-124434731D01*
X154555721Y-124982950D01*
X154712357Y-125516571D01*
X154911217Y-126033259D01*
X155150775Y-126530679D01*
X155429506Y-127006498D01*
X155745885Y-127458380D01*
X156098385Y-127883992D01*
X156485481Y-128280998D01*
X156905647Y-128647064D01*
X157357358Y-128979856D01*
X157455686Y-129045039D01*
X157533433Y-129096911D01*
X157593508Y-129139448D01*
X157626974Y-129166205D01*
X157630972Y-129171403D01*
X157609850Y-129184205D01*
X157550228Y-129209626D01*
X157458141Y-129245559D01*
X157339626Y-129289900D01*
X157200718Y-129340542D01*
X157047453Y-129395380D01*
X156885866Y-129452308D01*
X156721993Y-129509221D01*
X156561870Y-129564012D01*
X156411533Y-129614577D01*
X156277017Y-129658810D01*
X156164358Y-129694604D01*
X156079591Y-129719854D01*
X156028753Y-129732456D01*
X156019782Y-129733491D01*
X155993270Y-129718961D01*
X155939591Y-129679460D01*
X155866691Y-129621115D01*
X155787149Y-129554058D01*
X155634679Y-129417070D01*
X155465380Y-129255727D01*
X155290725Y-129081620D01*
X155122188Y-128906344D01*
X154971242Y-128741492D01*
X154888533Y-128646059D01*
X154818749Y-128565231D01*
X154758929Y-128499735D01*
X154715932Y-128456838D01*
X154697440Y-128443555D01*
X154671352Y-128454490D01*
X154611210Y-128484900D01*
X154523802Y-128531189D01*
X154415918Y-128589764D01*
X154295394Y-128656444D01*
X154173835Y-128723895D01*
X154066027Y-128782985D01*
X153978772Y-128830045D01*
X153918871Y-128861407D01*
X153893199Y-128873387D01*
X153867629Y-128856837D01*
X153821729Y-128805092D01*
X153758968Y-128723377D01*
X153682815Y-128616917D01*
X153596740Y-128490938D01*
X153504213Y-128350666D01*
X153408702Y-128201325D01*
X153313678Y-128048140D01*
X153222610Y-127896338D01*
X153138967Y-127751143D01*
X153093909Y-127669594D01*
X153027219Y-127542604D01*
X152952353Y-127393774D01*
X152879828Y-127244285D01*
X152834548Y-127147222D01*
X152708692Y-126871111D01*
X152795330Y-126817408D01*
X152845634Y-126786500D01*
X152926670Y-126737020D01*
X153029045Y-126674692D01*
X153143365Y-126605237D01*
X153201411Y-126570025D01*
X153520854Y-126376343D01*
X153442195Y-126164771D01*
X153351020Y-125900886D01*
X153263475Y-125612502D01*
X153183757Y-125315442D01*
X153116060Y-125025531D01*
X153064578Y-124758593D01*
X153056899Y-124711290D01*
X153028844Y-124532210D01*
X152563913Y-124523059D01*
X152421058Y-124519685D01*
X152294771Y-124515631D01*
X152192347Y-124511219D01*
X152121079Y-124506772D01*
X152088261Y-124502611D01*
X152087071Y-124501998D01*
X152082269Y-124476251D01*
X152075087Y-124410195D01*
X152066084Y-124310339D01*
X152055822Y-124183189D01*
X152044860Y-124035250D01*
X152036642Y-123916442D01*
X152023544Y-123708798D01*
X152014885Y-123535278D01*
X152010515Y-123383326D01*
X152010283Y-123240383D01*
X152014036Y-123093893D01*
X152021623Y-122931300D01*
X152024199Y-122884946D01*
X152033175Y-122734025D01*
X152042386Y-122590887D01*
X152051148Y-122465333D01*
X152058779Y-122367164D01*
X152064523Y-122306773D01*
X152078774Y-122186453D01*
X152552990Y-122169519D01*
X153027205Y-122152584D01*
X153067976Y-121914921D01*
X153121862Y-121641453D01*
X153192754Y-121343531D01*
X153276003Y-121038310D01*
X153366964Y-120742945D01*
X153450587Y-120502403D01*
X153520974Y-120312590D01*
X153142837Y-120085944D01*
X153021730Y-120013289D01*
X152913179Y-119948041D01*
X152824126Y-119894383D01*
X152761514Y-119856497D01*
X152732404Y-119838645D01*
X152731531Y-119811542D01*
X152750857Y-119749275D01*
X152787573Y-119657553D01*
X152838867Y-119542087D01*
X152901929Y-119408586D01*
X152973947Y-119262760D01*
X153052110Y-119110321D01*
X153133608Y-118956977D01*
X153215630Y-118808438D01*
X153295364Y-118670415D01*
X153358498Y-118566811D01*
X153446709Y-118428653D01*
X153536527Y-118292011D01*
X153623973Y-118162540D01*
X153705070Y-118045894D01*
X153775840Y-117947724D01*
X153832305Y-117873685D01*
X153870487Y-117829430D01*
X153884557Y-117819178D01*
X153910102Y-117830031D01*
X153969998Y-117860268D01*
X154057641Y-117906407D01*
X154166426Y-117964966D01*
X154289750Y-118032464D01*
X154303615Y-118040116D01*
X154703583Y-118261054D01*
X154908889Y-118022526D01*
X155157655Y-117747403D01*
X155430293Y-117470352D01*
X155708404Y-117209774D01*
X155817633Y-117113783D01*
X156056161Y-116908476D01*
X155835223Y-116508509D01*
X155766944Y-116383869D01*
X155707237Y-116272900D01*
X155659589Y-116182245D01*
X155627485Y-116118548D01*
X155614412Y-116088451D01*
X155614285Y-116087507D01*
X155633084Y-116065428D01*
X155685554Y-116022278D01*
X155765800Y-115962186D01*
X155867930Y-115889280D01*
X155986050Y-115807688D01*
X156114266Y-115721540D01*
X156246686Y-115634962D01*
X156377415Y-115552084D01*
X156388246Y-115545351D01*
X156493733Y-115482737D01*
X156630114Y-115406047D01*
X156785978Y-115321460D01*
X156949910Y-115235153D01*
X157110498Y-115153305D01*
X157135220Y-115140986D01*
X157294505Y-115062591D01*
X157416889Y-115004181D01*
X157506969Y-114963872D01*
X157569339Y-114939781D01*
X157608597Y-114930024D01*
X157629339Y-114932717D01*
X157633443Y-114936798D01*
X157651725Y-114966612D01*
X157689908Y-115029718D01*
X157743802Y-115119163D01*
X157809217Y-115227993D01*
X157881051Y-115347731D01*
X158107696Y-115725868D01*
X158297509Y-115655480D01*
X158569692Y-115561566D01*
X158866990Y-115471229D01*
X159172248Y-115389117D01*
X159468310Y-115319877D01*
X159710028Y-115272870D01*
X159947691Y-115232099D01*
X159964652Y-114757134D01*
X159981613Y-114282169D01*
X160078789Y-114270582D01*
X160327480Y-114246512D01*
X160606390Y-114229014D01*
X160899233Y-114218547D01*
X161189721Y-114215566D01*
X161461568Y-114220531D01*
G37*
%TO.C,PINS1*%
X128845000Y-91440000D02*
X128845000Y-99120000D01*
X128845000Y-91440000D02*
X131505000Y-91440000D01*
X128845000Y-99120000D02*
X131505000Y-99120000D01*
X130175000Y-88840000D02*
X131505000Y-88840000D01*
X131505000Y-88840000D02*
X131505000Y-90170000D01*
X131505000Y-91440000D02*
X131505000Y-99120000D01*
%TO.C,P9*%
X114300000Y-114935000D02*
X106680000Y-114935000D01*
X106680000Y-114935000D02*
X106680000Y-125095000D01*
X114300000Y-125095000D02*
X114300000Y-114935000D01*
X107950000Y-125095000D02*
X107950000Y-114935000D01*
X106680000Y-125095000D02*
X114300000Y-125095000D01*
%TO.C,E1*%
X123190000Y-44510000D02*
X128330000Y-44510000D01*
X123190000Y-44510000D02*
X123190000Y-41850000D01*
X128330000Y-44510000D02*
X128330000Y-41850000D01*
X120590000Y-43180000D02*
X120590000Y-41850000D01*
X120590000Y-41850000D02*
X121920000Y-41850000D01*
X123190000Y-41850000D02*
X128330000Y-41850000D01*
%TO.C,P7*%
X99695000Y-60960000D02*
X92075000Y-60960000D01*
X92075000Y-60960000D02*
X92075000Y-71120000D01*
X99695000Y-71120000D02*
X99695000Y-60960000D01*
X93345000Y-71120000D02*
X93345000Y-60960000D01*
X92075000Y-71120000D02*
X99695000Y-71120000D01*
%TO.C,C2*%
X162190000Y-45870000D02*
X162190000Y-45935000D01*
X162190000Y-45870000D02*
X165430000Y-45870000D01*
X162190000Y-48045000D02*
X162190000Y-48110000D01*
X162190000Y-48110000D02*
X165430000Y-48110000D01*
X165430000Y-45870000D02*
X165430000Y-45935000D01*
X165430000Y-48045000D02*
X165430000Y-48110000D01*
%TO.C,J1*%
X176590000Y-96520000D02*
X176590000Y-83760000D01*
X176590000Y-96520000D02*
X173930000Y-96520000D01*
X176590000Y-83760000D02*
X173930000Y-83760000D01*
X175260000Y-99120000D02*
X173930000Y-99120000D01*
X173930000Y-99120000D02*
X173930000Y-97790000D01*
X173930000Y-96520000D02*
X173930000Y-83760000D01*
%TO.C,P1*%
X85090000Y-114511668D02*
X77470000Y-114511668D01*
X77470000Y-114511668D02*
X77470000Y-124671668D01*
X85090000Y-124671668D02*
X85090000Y-114511668D01*
X78740000Y-124671668D02*
X78740000Y-114511668D01*
X77470000Y-124671668D02*
X85090000Y-124671668D01*
%TO.C,E3*%
X123190000Y-52130000D02*
X128330000Y-52130000D01*
X123190000Y-52130000D02*
X123190000Y-49470000D01*
X128330000Y-52130000D02*
X128330000Y-49470000D01*
X120590000Y-50800000D02*
X120590000Y-49470000D01*
X120590000Y-49470000D02*
X121920000Y-49470000D01*
X123190000Y-49470000D02*
X128330000Y-49470000D01*
%TO.C,E8*%
X123190000Y-71180000D02*
X128330000Y-71180000D01*
X123190000Y-71180000D02*
X123190000Y-68520000D01*
X128330000Y-71180000D02*
X128330000Y-68520000D01*
X120590000Y-69850000D02*
X120590000Y-68520000D01*
X120590000Y-68520000D02*
X121920000Y-68520000D01*
X123190000Y-68520000D02*
X128330000Y-68520000D01*
%TO.C,P3*%
X85090000Y-70908334D02*
X77470000Y-70908334D01*
X77470000Y-70908334D02*
X77470000Y-81068334D01*
X85090000Y-81068334D02*
X85090000Y-70908334D01*
X78740000Y-81068334D02*
X78740000Y-70908334D01*
X77470000Y-81068334D02*
X85090000Y-81068334D01*
%TO.C,D2*%
X164485000Y-86635000D02*
X164485000Y-83545000D01*
X158935001Y-85089538D02*
G75*
G03*
X164484999Y-86634830I2989999J-462D01*
G01*
X164485000Y-83545170D02*
G75*
G03*
X158935000Y-85090462I-2560000J-1544830D01*
G01*
X164425000Y-85090000D02*
G75*
G03*
X164425000Y-85090000I-2500000J0D01*
G01*
%TO.C,E10*%
X123190000Y-78800000D02*
X128330000Y-78800000D01*
X123190000Y-78800000D02*
X123190000Y-76140000D01*
X128330000Y-78800000D02*
X128330000Y-76140000D01*
X120590000Y-77470000D02*
X120590000Y-76140000D01*
X120590000Y-76140000D02*
X121920000Y-76140000D01*
X123190000Y-76140000D02*
X128330000Y-76140000D01*
%TO.C,P_IN3*%
X109855000Y-129540000D02*
X109855000Y-137160000D01*
X109855000Y-137160000D02*
X120015000Y-137160000D01*
X120015000Y-129540000D02*
X109855000Y-129540000D01*
X120015000Y-135890000D02*
X109855000Y-135890000D01*
X120015000Y-137160000D02*
X120015000Y-129540000D01*
%TO.C,GND1*%
X125035000Y-91440000D02*
X125035000Y-99120000D01*
X125035000Y-91440000D02*
X127695000Y-91440000D01*
X125035000Y-99120000D02*
X127695000Y-99120000D01*
X126365000Y-88840000D02*
X127695000Y-88840000D01*
X127695000Y-88840000D02*
X127695000Y-90170000D01*
X127695000Y-91440000D02*
X127695000Y-99120000D01*
%TO.C,E11*%
X123190000Y-82610000D02*
X128330000Y-82610000D01*
X123190000Y-82610000D02*
X123190000Y-79950000D01*
X128330000Y-82610000D02*
X128330000Y-79950000D01*
X120590000Y-81280000D02*
X120590000Y-79950000D01*
X120590000Y-79950000D02*
X121920000Y-79950000D01*
X123190000Y-79950000D02*
X128330000Y-79950000D01*
%TO.C,R2*%
X166482500Y-85344724D02*
X166482500Y-84835276D01*
X167527500Y-85344724D02*
X167527500Y-84835276D01*
%TO.C,J18*%
X181440000Y-63020000D02*
X166740000Y-63020000D01*
X181440000Y-53820000D02*
X181440000Y-63020000D01*
X172640000Y-53820000D02*
X181440000Y-53820000D01*
X167590000Y-63220000D02*
X166540000Y-63220000D01*
X166740000Y-63020000D02*
X166740000Y-60420000D01*
X166740000Y-56520000D02*
X166740000Y-53820000D01*
X166740000Y-53820000D02*
X168640000Y-53820000D01*
X166540000Y-62170000D02*
X166540000Y-63220000D01*
%TO.C,E2*%
X123205000Y-48295000D02*
X128345000Y-48295000D01*
X123205000Y-48295000D02*
X123205000Y-45635000D01*
X128345000Y-48295000D02*
X128345000Y-45635000D01*
X120605000Y-46965000D02*
X120605000Y-45635000D01*
X120605000Y-45635000D02*
X121935000Y-45635000D01*
X123205000Y-45635000D02*
X128345000Y-45635000D01*
%TO.C,U2*%
X159290000Y-59730000D02*
X163931000Y-59730000D01*
X159290000Y-59730000D02*
X159290000Y-49490000D01*
X160800000Y-59730000D02*
X160800000Y-49490000D01*
X163931000Y-59730000D02*
X163931000Y-49490000D01*
X159290000Y-56460000D02*
X160800000Y-56460000D01*
X159290000Y-52759000D02*
X160800000Y-52759000D01*
X159290000Y-49490000D02*
X163931000Y-49490000D01*
%TO.C,P_IN2*%
X95250000Y-129540000D02*
X95250000Y-137160000D01*
X95250000Y-137160000D02*
X105410000Y-137160000D01*
X105410000Y-129540000D02*
X95250000Y-129540000D01*
X105410000Y-135890000D02*
X95250000Y-135890000D01*
X105410000Y-137160000D02*
X105410000Y-129540000D01*
%TO.C,E4*%
X123190000Y-55940000D02*
X128330000Y-55940000D01*
X123190000Y-55940000D02*
X123190000Y-53280000D01*
X128330000Y-55940000D02*
X128330000Y-53280000D01*
X120590000Y-54610000D02*
X120590000Y-53280000D01*
X120590000Y-53280000D02*
X121920000Y-53280000D01*
X123190000Y-53280000D02*
X128330000Y-53280000D01*
%TO.C,E6*%
X123190000Y-63560000D02*
X128330000Y-63560000D01*
X123190000Y-63560000D02*
X123190000Y-60900000D01*
X128330000Y-63560000D02*
X128330000Y-60900000D01*
X120590000Y-62230000D02*
X120590000Y-60900000D01*
X120590000Y-60900000D02*
X121920000Y-60900000D01*
X123190000Y-60900000D02*
X128330000Y-60900000D01*
%TO.C,P4*%
X85090000Y-49106668D02*
X77470000Y-49106668D01*
X77470000Y-49106668D02*
X77470000Y-59266668D01*
X85090000Y-59266668D02*
X85090000Y-49106668D01*
X78740000Y-59266668D02*
X78740000Y-49106668D01*
X77470000Y-59266668D02*
X85090000Y-59266668D01*
%TO.C,P8*%
X92075000Y-48895000D02*
X99695000Y-48895000D01*
X93345000Y-48895000D02*
X93345000Y-38735000D01*
X99695000Y-48895000D02*
X99695000Y-38735000D01*
X92075000Y-38735000D02*
X92075000Y-48895000D01*
X99695000Y-38735000D02*
X92075000Y-38735000D01*
%TO.C,E5*%
X123190000Y-59750000D02*
X128330000Y-59750000D01*
X123190000Y-59750000D02*
X123190000Y-57090000D01*
X128330000Y-59750000D02*
X128330000Y-57090000D01*
X120590000Y-58420000D02*
X120590000Y-57090000D01*
X120590000Y-57090000D02*
X121920000Y-57090000D01*
X123190000Y-57090000D02*
X128330000Y-57090000D01*
%TO.C,E9*%
X123190000Y-74990000D02*
X128330000Y-74990000D01*
X123190000Y-74990000D02*
X123190000Y-72330000D01*
X128330000Y-74990000D02*
X128330000Y-72330000D01*
X120590000Y-73660000D02*
X120590000Y-72330000D01*
X120590000Y-72330000D02*
X121920000Y-72330000D01*
X123190000Y-72330000D02*
X128330000Y-72330000D01*
%TO.C,P10*%
X113665000Y-93345000D02*
X106045000Y-93345000D01*
X106045000Y-93345000D02*
X106045000Y-103505000D01*
X113665000Y-103505000D02*
X113665000Y-93345000D01*
X107315000Y-103505000D02*
X107315000Y-93345000D01*
X106045000Y-103505000D02*
X113665000Y-103505000D01*
%TO.C,LC1*%
X167725000Y-74955000D02*
X167725000Y-67275000D01*
X167725000Y-74955000D02*
X165065000Y-74955000D01*
X167725000Y-67275000D02*
X165065000Y-67275000D01*
X166395000Y-77555000D02*
X165065000Y-77555000D01*
X165065000Y-77555000D02*
X165065000Y-76225000D01*
X165065000Y-74955000D02*
X165065000Y-67275000D01*
%TO.C,P2*%
X85090000Y-92710000D02*
X77470000Y-92710000D01*
X77470000Y-92710000D02*
X77470000Y-102870000D01*
X85090000Y-102870000D02*
X85090000Y-92710000D01*
X78740000Y-102870000D02*
X78740000Y-92710000D01*
X77470000Y-102870000D02*
X85090000Y-102870000D01*
%TO.C,E12*%
X123190000Y-83760000D02*
X128330000Y-83760000D01*
X120590000Y-83760000D02*
X121920000Y-83760000D01*
X120590000Y-85090000D02*
X120590000Y-83760000D01*
X128330000Y-86420000D02*
X128330000Y-83760000D01*
X123190000Y-86420000D02*
X123190000Y-83760000D01*
X123190000Y-86420000D02*
X128330000Y-86420000D01*
%TO.C,U1*%
X142050000Y-46225000D02*
X150050000Y-46225000D01*
X142050000Y-47555000D02*
X142050000Y-46225000D01*
X150050000Y-46225000D02*
X150050000Y-47555000D01*
X135550000Y-47555000D02*
X156550000Y-47555000D01*
X156550000Y-47555000D02*
X156550000Y-98555000D01*
X156550000Y-98555000D02*
X135550000Y-98555000D01*
X135550000Y-98555000D02*
X135550000Y-47555000D01*
%TD*%
M02*
